<svg width="110" height="99" viewBox="0 0 110 99" fill="none" xmlns="http://www.w3.org/2000/svg">
<path d="M29.6832 27.1287C21.0613 21.4584 6.70109 10.7543 3.07806 0.0249023C1.07346 3.23459 -1.91113 10.0867 4.29479 15.8793C10.7103 21.8679 20.3898 27.4121 25.5886 30.1851C26.6991 30.7824 27.6536 31.6325 28.375 32.6667C29.0964 33.7009 29.5644 34.8903 29.7414 36.1388C30.049 38.3924 30.5688 40.6119 31.2938 42.7677C31.5422 43.496 31.8338 44.2088 32.1671 44.9023C31.5674 40.9433 31.5792 36.9156 32.202 32.9601C32.3899 31.8486 32.2531 30.7065 31.808 29.6707C31.363 28.635 30.6286 27.7497 29.6929 27.121L29.6832 27.1287ZM20.8264 45.3855C24.3195 48.3954 29.1515 48.7524 31.9342 48.6651C30.9221 47.3369 30.1094 45.8679 29.5221 44.3046C27.5505 44.2697 22.2392 43.9864 17.4227 41.9973C18.4665 43.2144 19.6046 44.3474 20.8264 45.3855ZM15.1037 38.2637C15.2659 38.3252 15.4086 38.4291 15.5171 38.5645C15.8043 38.7585 16.0992 38.9351 16.4117 39.1098C20.6809 41.452 26.1688 41.9799 28.7672 42.0963C28.4315 40.9494 28.1695 39.7987 27.9561 38.6809C21.9727 37.4204 16.1948 35.3303 10.7899 32.4711C11.6293 34.7839 13.1293 36.7994 15.1037 38.2676V38.2637ZM10.9548 30.0765C16.1761 32.9151 21.761 35.0266 27.5544 36.3522C27.4217 35.4613 27.082 34.6138 26.5627 33.8778C26.0434 33.1418 25.3589 32.5378 24.564 32.114C19.5728 29.4535 10.5279 24.2625 3.97266 18.5301C3.88145 21.4002 4.66544 26.6339 10.9587 30.0842L10.9548 30.0765Z" fill="white"/>
<path d="M80.3146 27.1287C88.9423 21.4584 103.301 10.7543 106.922 0.0249023C108.928 3.23459 111.911 10.0867 105.705 15.8793C99.2874 21.8679 89.6099 27.4121 84.4111 30.1851C83.3006 30.7824 82.3461 31.6325 81.6247 32.6667C80.9033 33.7009 80.4353 34.8903 80.2583 36.1388C79.9538 38.392 79.4373 40.6115 78.7155 42.7677C78.4663 43.4957 78.1747 44.2084 77.8423 44.9023C78.44 40.9431 78.4283 36.9158 77.8074 32.9601C77.6198 31.8488 77.7565 30.707 78.2012 29.6714C78.6458 28.6358 79.3796 27.7503 80.3146 27.121V27.1287ZM89.1752 45.3855C85.6822 48.3954 80.8502 48.7524 78.0674 48.6651C79.079 47.3368 79.8909 45.8678 80.4776 44.3046C82.4492 44.2697 87.7624 43.9864 92.577 41.9973C91.5344 43.2149 90.3969 44.3478 89.1752 45.3855ZM94.8979 38.2637C94.7357 38.3252 94.593 38.4291 94.4845 38.5645C94.1954 38.7585 93.9024 38.9351 93.59 39.1098C89.3207 41.452 83.8328 41.9799 81.2325 42.0963C81.5682 40.9494 81.8301 39.7987 82.0436 38.6809C88.0276 37.4208 93.8062 35.3306 99.2118 32.4711C98.373 34.7854 96.873 36.8023 94.8979 38.2714V38.2637ZM99.0468 30.0765C93.825 32.9155 88.2394 35.027 82.4453 36.3522C82.579 35.4614 82.9192 34.6141 83.4388 33.8782C83.9584 33.1423 84.6429 32.5381 85.4376 32.114C90.4268 29.4535 99.4737 24.2625 106.029 18.5301C106.12 21.4002 105.336 26.6339 99.0429 30.0842L99.0468 30.0765Z" fill="white"/>
<path d="M73.3728 28.0809L68.6301 30.8404C68.5091 30.911 68.3714 30.9481 68.2313 30.9481C68.0912 30.9481 67.9536 30.911 67.8325 30.8404L55.6497 23.7302C55.529 23.6596 55.3917 23.6224 55.2519 23.6224C55.112 23.6224 54.9747 23.6596 54.854 23.7302L42.5645 30.821C42.4455 30.8917 42.3471 30.9923 42.279 31.1128C42.2109 31.2333 42.1755 31.3695 42.1764 31.5079V45.6275C42.1762 45.7674 42.2131 45.9048 42.2833 46.0258C42.3535 46.1469 42.4546 46.2471 42.5761 46.3164L45.7373 48.1211C45.8584 48.1903 45.9592 48.2903 46.0293 48.4109C46.0995 48.5315 46.1367 48.6685 46.137 48.808V54.3833C46.1371 54.5221 46.1006 54.6585 46.0313 54.7787C45.962 54.899 45.8623 54.9989 45.7422 55.0685C45.6221 55.1381 45.4858 55.1749 45.347 55.1752C45.2082 55.1755 45.0718 55.1393 44.9514 55.0702L36.1781 50.0636C36.0565 49.9943 35.9555 49.8941 35.8853 49.7731C35.815 49.6521 35.7781 49.5146 35.7783 49.3747V27.7743C35.7783 27.6349 35.8151 27.498 35.8849 27.3774C35.9548 27.2567 36.0552 27.1567 36.1761 27.0873L54.8638 16.3774C54.984 16.3077 55.1206 16.271 55.2596 16.271C55.3986 16.271 55.5352 16.3077 55.6555 16.3774L73.3825 26.705C73.5035 26.7751 73.6037 26.8759 73.6731 26.9972C73.7425 27.1185 73.7785 27.256 73.7775 27.3958C73.7765 27.5355 73.7386 27.6725 73.6675 27.7929C73.5964 27.9132 73.4948 28.0126 73.3728 28.0809Z" fill="white"/>
<path d="M49.3285 29.9886L53.9606 27.3107C54.0809 27.2412 54.2174 27.2046 54.3563 27.2046C54.4952 27.2046 54.6317 27.2411 54.7521 27.3105C54.8724 27.3799 54.9724 27.4798 55.0419 27.6C55.1114 27.7203 55.1481 27.8568 55.1482 27.9957V52.177C55.1483 52.315 55.1844 52.4506 55.253 52.5704C55.3216 52.6901 55.4204 52.7898 55.5394 52.8596C55.6585 52.9295 55.7937 52.9669 55.9317 52.9684C56.0697 52.9698 56.2057 52.9352 56.3261 52.8679L67.7755 46.464C67.8987 46.3956 68.0015 46.2955 68.0732 46.174C68.1448 46.0526 68.1827 45.9142 68.183 45.7732V42.6799C68.1825 42.4698 68.0986 42.2684 67.9498 42.1199C67.801 41.9715 67.5994 41.8882 67.3893 41.8882H62.6136C62.4036 41.8882 62.2022 41.8048 62.0537 41.6563C61.9052 41.5078 61.8218 41.3064 61.8218 41.0964V35.9151C61.8218 35.7051 61.9052 35.5037 62.0537 35.3553C62.2022 35.2068 62.4036 35.1234 62.6136 35.1234H73.6495C73.8597 35.1234 74.0613 35.2067 74.2101 35.3551C74.3589 35.5036 74.4427 35.705 74.4432 35.9151V49.4719C74.4437 49.6114 74.4071 49.7484 74.3372 49.8691C74.2673 49.9898 74.1666 50.0898 74.0454 50.1588L55.5499 60.766C55.4285 60.8365 55.2906 60.8737 55.1502 60.8737C55.0097 60.8737 54.8718 60.8365 54.7504 60.766L49.3168 57.5446C49.1987 57.4744 49.1008 57.3747 49.0328 57.2553C48.9648 57.1359 48.9289 57.0009 48.9287 56.8635V30.6756C48.9291 30.5361 48.9662 30.3991 49.0364 30.2785C49.1066 30.1579 49.2073 30.0579 49.3285 29.9886Z" fill="white"/>
<path d="M18.0381 82.5027V71.8296H19.1694V81.5324H25.1502V82.5027H18.0381Z" fill="white"/>
<path d="M28.6167 81.5324H35.04V82.5027H27.4873V71.8296H34.811V72.7999H28.6167V81.5324ZM28.4945 76.6053H34.1396V77.5659H28.4945V76.6053Z" fill="white"/>
<path d="M42.0406 82.5936C41.2714 82.6015 40.5076 82.4639 39.7896 82.188C39.1243 81.9332 38.5171 81.5471 38.0043 81.0528C37.4999 80.5629 37.0999 79.9761 36.8283 79.3276C36.2695 77.9372 36.2695 76.3847 36.8283 74.9943C37.1012 74.3446 37.5041 73.7576 38.012 73.2692C38.5293 72.7766 39.1386 72.3908 39.8051 72.1339C40.5232 71.858 41.2869 71.7204 42.0562 71.7284C42.8187 71.7217 43.5761 71.8532 44.2917 72.1165C44.9525 72.3624 45.5457 72.7614 46.0227 73.2808L45.3202 73.9988C44.9056 73.5717 44.4002 73.2434 43.8415 73.0382C43.2807 72.8402 42.6896 72.7417 42.095 72.7471C41.4723 72.7407 40.8541 72.8519 40.2728 73.0751C39.736 73.2833 39.2462 73.5965 38.832 73.9963C38.4178 74.3962 38.0876 74.8747 37.8607 75.4038C37.4027 76.5318 37.4027 77.794 37.8607 78.922C38.0855 79.453 38.4156 79.9329 38.8309 80.3328C39.2468 80.7374 39.7398 81.0541 40.2805 81.2643C40.8565 81.4873 41.4696 81.5986 42.0872 81.5922C42.676 81.5961 43.2615 81.503 43.8201 81.3167C44.3834 81.1218 44.8964 80.8043 45.3221 80.3871L45.9625 81.241C45.4424 81.6958 44.8358 82.041 44.1791 82.2559C43.4894 82.484 42.7671 82.5981 42.0406 82.5936ZM44.8777 81.0974V77.16H45.9606V81.2352L44.8777 81.0974Z" fill="white"/>
<path d="M50.5698 81.5324H56.9931V82.5027H49.4424V71.8296H56.7661V72.7999H50.5698V81.5324ZM50.4476 76.6053H56.0927V77.5659H50.4476V76.6053Z" fill="white"/>
<path d="M60.0615 82.5027V71.8296H60.9911L68.3652 81.1074H67.8781V71.8296H68.992V82.5027H68.0625L60.698 73.2249H61.1851V82.5027H60.0615Z" fill="white"/>
<path d="M72.5576 82.5022V71.8291H76.9064C77.9464 71.8065 78.9759 72.0398 79.9046 72.5083C80.7365 72.9364 81.4317 73.5892 81.9111 74.3926C82.3809 75.2431 82.6272 76.1989 82.6272 77.1705C82.6272 78.1422 82.3809 79.0979 81.9111 79.9484C81.4314 80.7478 80.7377 81.3971 79.9085 81.823C78.9798 82.2916 77.9502 82.5248 76.9103 82.5022H72.5576ZM73.6851 81.5319H76.8443C77.6993 81.5538 78.5463 81.3624 79.3088 80.975C79.9843 80.6242 80.5472 80.0902 80.9331 79.4342C81.3137 78.7383 81.5132 77.9579 81.5132 77.1647C81.5132 76.3715 81.3137 75.5911 80.9331 74.8952C80.545 74.2429 79.9825 73.712 79.3088 73.3622C78.5463 72.9748 77.6993 72.7834 76.8443 72.8052H73.6851V81.5319Z" fill="white"/>
<path d="M88.1706 82.5966C87.3938 82.6001 86.6223 82.4688 85.8905 82.2084C85.2593 82.0086 84.6825 81.6667 84.2041 81.2091L84.6465 80.3397C85.0864 80.7448 85.6022 81.0588 86.1641 81.2634C86.8036 81.5123 87.4843 81.6387 88.1706 81.636C88.728 81.6545 89.2839 81.5696 89.8104 81.3857C90.1808 81.2556 90.5048 81.0194 90.7419 80.7065C90.9371 80.4294 91.0409 80.0983 91.0388 79.7595C91.0564 79.3899 90.9282 79.0282 90.6817 78.7523C90.4181 78.4833 90.097 78.2776 89.7425 78.1507C89.3243 77.9941 88.8965 77.8645 88.4617 77.7626C87.9921 77.6527 87.5238 77.533 87.0567 77.4036C86.6086 77.2848 86.1761 77.1135 85.7682 76.8932C85.3893 76.6912 85.0645 76.401 84.8212 76.0472C84.5649 75.6334 84.4397 75.1517 84.4622 74.6655C84.458 74.1491 84.6044 73.6427 84.8833 73.2081C85.1997 72.7345 85.6475 72.3635 86.1718 72.1408C86.8765 71.8466 87.6365 71.7083 88.3996 71.7352C89.0035 71.7364 89.6043 71.8213 90.1849 71.9875C90.7281 72.1336 91.2435 72.3683 91.7102 72.6822L91.3221 73.5826C90.8758 73.2816 90.3836 73.0548 89.8647 72.9112C89.3807 72.7724 88.8799 72.7006 88.3763 72.6977C87.8361 72.6802 87.2976 72.7678 86.7909 72.9558C86.422 73.0928 86.1011 73.3342 85.8672 73.6506C85.6696 73.9403 85.566 74.2838 85.5703 74.6344C85.5526 75.004 85.6808 75.3657 85.9273 75.6416C86.1913 75.9124 86.5159 76.1166 86.8743 76.2373C87.2961 76.3912 87.7263 76.5208 88.1628 76.6255C88.6312 76.738 89.0969 76.8603 89.5601 76.9922C90.004 77.117 90.4333 77.2887 90.8408 77.5045C91.2189 77.7008 91.5439 77.9858 91.7878 78.3351C92.0428 78.7408 92.1674 79.2148 92.1449 79.6935C92.1471 80.2056 91.9986 80.707 91.718 81.1353C91.3954 81.6095 90.9425 81.9802 90.4139 82.2026C89.7027 82.4921 88.9379 82.6264 88.1706 82.5966Z" fill="white"/>
<path d="M31.9423 98.0237C31.1568 98.0317 30.3768 97.8922 29.6427 97.6123C28.9631 97.3498 28.3429 96.9539 27.8186 96.448C27.3037 95.9479 26.8956 95.3485 26.6193 94.686C26.0475 93.2659 26.0475 91.6796 26.6193 90.2596C26.8964 89.5956 27.3073 88.9958 27.8264 88.4975C28.3545 87.9927 28.977 87.5971 29.6583 87.3332C30.3922 87.0527 31.1722 86.9125 31.9578 86.9198C32.7363 86.9111 33.51 87.0425 34.2419 87.308C34.9172 87.5579 35.5237 87.9642 36.0117 88.4936L35.2937 89.2252C34.8692 88.7894 34.3527 88.454 33.782 88.2433C33.2108 88.0436 32.6095 87.9438 32.0044 87.9483C31.3679 87.9411 30.7358 88.0543 30.1415 88.2821C29.5892 88.4976 29.0857 88.8215 28.6608 89.2349C28.2406 89.6423 27.9067 90.13 27.6789 90.669C27.2106 91.8206 27.2106 93.1094 27.6789 94.261C27.9056 94.8029 28.2396 95.2934 28.6608 95.7028C29.0853 96.1163 29.5889 96.4397 30.1415 96.6537C30.7303 96.8823 31.3573 96.9963 31.9889 96.9894C32.5901 96.9929 33.1878 96.8985 33.7587 96.71C34.3341 96.5098 34.8582 96.1851 35.2937 95.7591L35.9496 96.6304C35.417 97.0949 34.7967 97.4479 34.1254 97.6686C33.4218 97.9046 32.6845 98.0246 31.9423 98.0237ZM34.8415 96.4965V92.4796H35.9496V96.6421L34.8415 96.4965Z" fill="white"/>
<path d="M38.9717 97.9347V87.0229H43.0566C43.8739 87.0019 44.6866 87.1533 45.4415 87.4673C46.0689 87.7306 46.6034 88.1752 46.9765 88.7442C47.3475 89.3511 47.533 90.0533 47.5102 90.7643C47.5294 91.465 47.3425 92.156 46.9726 92.7515C46.5996 93.321 46.0651 93.7662 45.4376 94.0303C44.6824 94.3432 43.87 94.4946 43.0527 94.4747H39.6121L40.136 93.9468V97.9366L38.9717 97.9347ZM40.136 94.038L39.6218 93.4928H43.0372C44.1278 93.4928 44.9564 93.2534 45.523 92.7747C46.0897 92.2961 46.373 91.6259 46.373 90.7643C46.373 89.8911 46.0897 89.2151 45.523 88.7364C44.9564 88.2578 44.1278 88.0191 43.0372 88.0204H39.6121L40.1263 87.4751L40.136 94.038ZM46.4351 97.9347L43.629 93.9759H44.8768L47.6984 97.9347H46.4351Z" fill="white"/>
<path d="M54.7841 98.0255C54.0037 98.0326 53.2289 97.8931 52.5001 97.6141C51.8193 97.3537 51.1987 96.9575 50.6759 96.4497C50.1631 95.9475 49.7548 95.3486 49.4747 94.6877C48.903 93.273 48.903 91.6915 49.4747 90.2768C49.7568 89.6124 50.1691 89.0113 50.6874 88.509C51.2057 88.0068 51.8194 87.6134 52.4923 87.3524C53.9651 86.8012 55.5876 86.8012 57.0604 87.3524C57.7369 87.6165 58.3543 88.0122 58.8768 88.5167C59.3917 89.0168 59.7997 89.6162 60.076 90.2787C60.6479 91.6988 60.6479 93.2851 60.076 94.7052C59.7997 95.3677 59.3917 95.9671 58.8768 96.4672C58.3543 96.9717 57.7369 97.3674 57.0604 97.6315C56.3332 97.9049 55.5609 98.0386 54.7841 98.0255ZM54.7841 96.997C55.4056 97.0037 56.0225 96.8897 56.6005 96.6612C57.1434 96.4463 57.6367 96.1227 58.0501 95.7104C58.4603 95.2996 58.786 94.8124 59.0087 94.2763C59.4666 93.1201 59.4666 91.8328 59.0087 90.6765C58.7865 90.1402 58.4607 89.6529 58.0501 89.2425C57.6363 88.8301 57.1431 88.506 56.6005 88.2897C55.4278 87.8447 54.1327 87.8447 52.96 88.2897C52.4139 88.5038 51.9178 88.8281 51.5026 89.2425C50.6507 90.1032 50.1728 91.2654 50.1728 92.4764C50.1728 93.6875 50.6507 94.8496 51.5026 95.7104C51.9175 96.1246 52.4137 96.4483 52.96 96.6612C53.5404 96.8914 54.1597 97.0074 54.7841 97.0028V96.997Z" fill="white"/>
<path d="M67.4504 98.024C66.0597 98.024 64.9633 97.6243 64.1612 96.8247C63.3591 96.0252 62.9593 94.8402 62.9619 93.2696V87.0249H64.1146V93.2347C64.1146 94.5284 64.4057 95.4793 64.9879 96.0873C65.57 96.6954 66.3909 97.002 67.4504 97.0072C68.5216 97.0072 69.3483 96.7005 69.9305 96.0873C70.5127 95.4741 70.8037 94.5232 70.8037 93.2347V87.0249H71.9254V93.2755C71.9254 94.846 71.5282 96.0311 70.7339 96.8306C69.9395 97.6301 68.8451 98.0279 67.4504 98.024Z" fill="white"/>
<path d="M75.3623 97.9366V87.0249H79.4472C80.2646 87.0039 81.0772 87.1553 81.8321 87.4693C82.4592 87.7331 82.9935 88.1776 83.3671 88.7461C83.7395 89.3527 83.9264 90.0549 83.9047 90.7663C83.9239 91.467 83.737 92.1579 83.3671 92.7534C82.993 93.3238 82.4591 93.7712 81.8321 94.04C81.0783 94.3584 80.2653 94.5126 79.4472 94.4921H76.0008L76.515 93.9469V97.9366H75.3623ZM76.515 94.04L76.0008 93.4792H79.4161C80.5067 93.4792 81.3354 93.2424 81.902 92.7689C82.4686 92.2954 82.752 91.6279 82.752 90.7663C82.752 89.893 82.4686 89.2171 81.902 88.7384C81.3354 88.2597 80.5067 88.021 79.4161 88.0223H76.0008L76.515 87.477V94.04Z" fill="white"/>
</svg>
