<svg width="130" height="117" viewBox="0 0 130 117" fill="none" xmlns="http://www.w3.org/2000/svg">
<path d="M34.7536 32.3585C24.4601 25.5889 7.31587 12.8095 2.99043 0C0.597196 3.83196 -2.96602 12.0125 4.44306 18.9281C12.1023 26.0777 23.6585 32.6968 29.8651 36.0075C31.1909 36.7206 32.3305 37.7355 33.1917 38.9702C34.053 40.2049 34.6118 41.6248 34.8231 43.1154C35.1904 45.8059 35.8109 48.4557 36.6765 51.0295C36.973 51.8989 37.3212 52.7499 37.719 53.578C37.0031 48.8513 37.0171 44.0428 37.7607 39.3205C37.985 37.9934 37.8217 36.6299 37.2904 35.3934C36.759 34.1568 35.8822 33.0999 34.7651 32.3493L34.7536 32.3585ZM24.1797 54.1548C28.35 57.7482 34.1188 58.1745 37.441 58.0702C36.2326 56.4845 35.2624 54.7307 34.5613 52.8644C32.2074 52.8227 25.8664 52.4844 20.1161 50.1097C21.3622 51.5628 22.721 52.9154 24.1797 54.1548ZM17.3475 45.6522C17.5412 45.7257 17.7116 45.8497 17.841 46.0113C18.1839 46.243 18.5361 46.4538 18.9091 46.6624C24.006 49.4587 30.5579 50.0889 33.66 50.2279C33.2592 48.8587 32.9465 47.4848 32.6916 46.1503C25.5483 44.6455 18.6502 42.1502 12.1973 38.7366C13.1995 41.4979 14.9903 43.9041 17.3475 45.6569V45.6522ZM12.3943 35.8777C18.6279 39.2667 25.2955 41.7876 32.212 43.3702C32.0536 42.3065 31.6481 41.2948 31.0281 40.4161C30.4081 39.5374 29.5909 38.8162 28.6419 38.3103C22.6831 35.134 11.8846 28.9366 4.05847 22.0929C3.94958 25.5194 4.88556 31.7677 12.3989 35.887L12.3943 35.8777Z" fill="#E0C170"/>
<path d="M95.2 32.3585C105.5 25.5889 122.642 12.8095 126.965 0C129.361 3.83196 132.922 12.0125 125.513 18.9281C117.851 26.0777 106.297 32.6968 100.091 36.0075C98.765 36.7206 97.6254 37.7355 96.7642 38.9702C95.903 40.2049 95.3441 41.6248 95.1329 43.1154C94.7693 45.8055 94.1526 48.4553 93.291 51.0295C92.9935 51.8986 92.6453 52.7495 92.2485 53.578C92.9621 48.8512 92.948 44.043 92.2068 39.3205C91.9828 37.9937 92.146 36.6305 92.6769 35.3941C93.2078 34.1577 94.0838 33.1006 95.2 32.3493V32.3585ZM105.778 54.1548C101.608 57.7482 95.8395 58.1745 92.5172 58.0702C93.7249 56.4844 94.6943 54.7306 95.3947 52.8644C97.7485 52.8227 104.092 52.4844 109.84 50.1097C108.595 51.5633 107.237 52.916 105.778 54.1548ZM112.611 45.6522C112.417 45.7257 112.247 45.8497 112.117 46.0113C111.772 46.243 111.422 46.4538 111.049 46.6624C105.952 49.4587 99.4004 50.0889 96.2959 50.2279C96.6967 48.8587 97.0095 47.4848 97.2643 46.1503C104.408 44.6459 111.307 42.1505 117.761 38.7366C116.76 41.4996 114.969 43.9075 112.611 45.6615V45.6522ZM117.564 35.8777C111.33 39.2672 104.661 41.788 97.7439 43.3702C97.9035 42.3066 98.3096 41.2951 98.9299 40.4165C99.5503 39.538 100.368 38.8167 101.316 38.3103C107.273 35.134 118.074 28.9366 125.9 22.0929C126.009 25.5194 125.073 31.7677 117.559 35.887L117.564 35.8777Z" fill="#E0C170"/>
<path d="M86.9143 33.496L81.2521 36.7905C81.1076 36.8747 80.9433 36.9191 80.776 36.9191C80.6087 36.9191 80.4444 36.8747 80.2999 36.7905L65.7551 28.3018C65.611 28.2175 65.4471 28.1731 65.2802 28.1731C65.1133 28.1731 64.9493 28.2175 64.8052 28.3018L50.133 36.7673C49.991 36.8517 49.8735 36.9719 49.7922 37.1157C49.711 37.2596 49.6687 37.4222 49.6697 37.5875V54.4444C49.6695 54.6114 49.7135 54.7755 49.7974 54.92C49.8812 55.0645 50.0018 55.1841 50.1469 55.2668L53.921 57.4214C54.0656 57.5041 54.1859 57.6235 54.2697 57.7675C54.3535 57.9115 54.3978 58.075 54.3982 58.2416V64.8977C54.3983 65.0634 54.3548 65.2262 54.272 65.3698C54.1893 65.5134 54.0703 65.6327 53.9269 65.7158C53.7835 65.7989 53.6208 65.8428 53.4551 65.8432C53.2893 65.8435 53.1264 65.8003 52.9827 65.7178L42.5085 59.7405C42.3634 59.6578 42.2428 59.5382 42.1589 59.3937C42.0751 59.2492 42.031 59.0851 42.0313 58.9181V33.13C42.0312 32.9635 42.0751 32.8001 42.1585 32.6561C42.2419 32.5121 42.3618 32.3926 42.5062 32.3098L64.8168 19.5235C64.9604 19.4403 65.1235 19.3965 65.2894 19.3965C65.4554 19.3965 65.6185 19.4403 65.7621 19.5235L86.9259 31.8534C87.0703 31.937 87.19 32.0574 87.2728 32.2022C87.3556 32.347 87.3986 32.5112 87.3974 32.6781C87.3963 32.8449 87.351 33.0085 87.2661 33.1521C87.1812 33.2958 87.0599 33.4144 86.9143 33.496Z" fill="#E0C170"/>
<path d="M58.208 35.7711L63.7381 32.5739C63.8818 32.491 64.0447 32.4473 64.2106 32.4473C64.3764 32.4472 64.5394 32.4908 64.683 32.5737C64.8267 32.6566 64.9461 32.7758 65.0291 32.9194C65.1121 33.063 65.1559 33.2259 65.156 33.3917V62.2612C65.1561 62.4259 65.1992 62.5878 65.2811 62.7308C65.3631 62.8737 65.4809 62.9928 65.6231 63.0761C65.7652 63.1595 65.9266 63.2042 66.0914 63.206C66.2561 63.2077 66.4185 63.1663 66.5623 63.086L80.2313 55.4406C80.3785 55.3589 80.5012 55.2393 80.5868 55.0944C80.6723 54.9494 80.7175 54.7841 80.7178 54.6158V50.9228C80.7172 50.6719 80.6171 50.4315 80.4395 50.2543C80.2619 50.0771 80.0212 49.9776 79.7703 49.9776H74.0687C73.818 49.9776 73.5776 49.878 73.4003 49.7007C73.223 49.5235 73.1234 49.283 73.1234 49.0323V42.8465C73.1234 42.5958 73.223 42.3554 73.4003 42.1781C73.5776 42.0009 73.818 41.9013 74.0687 41.9013H87.2442C87.4951 41.9013 87.7358 42.0008 87.9135 42.178C88.0911 42.3552 88.1912 42.5956 88.1918 42.8465V59.0316C88.1923 59.1981 88.1486 59.3618 88.0652 59.5058C87.9817 59.6499 87.8615 59.7693 87.7169 59.8517L65.6356 72.5153C65.4906 72.5995 65.326 72.6439 65.1583 72.6439C64.9907 72.6439 64.826 72.5995 64.6811 72.5153L58.1941 68.6694C58.053 68.5856 57.9362 68.4666 57.855 68.324C57.7738 68.1815 57.7309 68.0203 57.7307 67.8562V36.5912C57.7311 36.4246 57.7755 36.2611 57.8593 36.1171C57.9431 35.9731 58.0633 35.8538 58.208 35.7711Z" fill="#E0C170"/>
<path d="M20.8525 98.466V85.7236H22.2032V97.3076H29.3436V98.466H20.8525Z" fill="white"/>
<path d="M33.4807 97.3076H41.1492V98.466H32.1323V85.7236H40.8759V86.882H33.4807V97.3076ZM33.3347 91.4252H40.0743V92.572H33.3347V91.4252Z" fill="white"/>
<path d="M49.5086 98.5746C48.5903 98.5841 47.6785 98.4198 46.8212 98.0904C46.0269 97.7862 45.302 97.3253 44.6897 96.7351C44.0876 96.1503 43.61 95.4497 43.2858 94.6755C42.6186 93.0155 42.6186 91.162 43.2858 89.5021C43.6116 88.7264 44.0926 88.0256 44.699 87.4425C45.3165 86.8544 46.044 86.3938 46.8397 86.0871C47.697 85.7578 48.6088 85.5935 49.5272 85.6029C50.4375 85.595 51.3417 85.752 52.1961 86.0663C52.9851 86.3599 53.6933 86.8363 54.2627 87.4564L53.424 88.3136C52.9291 87.8036 52.3257 87.4117 51.6586 87.1668C50.9891 86.9304 50.2835 86.8128 49.5735 86.8192C48.8302 86.8115 48.092 86.9443 47.398 87.2108C46.7572 87.4593 46.1725 87.8332 45.678 88.3106C45.1835 88.788 44.7892 89.3593 44.5183 89.9909C43.9716 91.3377 43.9716 92.8445 44.5183 94.1912C44.7867 94.8251 45.1808 95.3981 45.6767 95.8756C46.1731 96.3585 46.7617 96.7367 47.4073 96.9876C48.0949 97.2539 48.8269 97.3868 49.5642 97.3791C50.2672 97.3837 50.9662 97.2726 51.6331 97.0502C52.3056 96.8175 52.918 96.4384 53.4263 95.9404L54.1909 96.9598C53.5699 97.5028 52.8457 97.915 52.0617 98.1715C51.2383 98.4438 50.3759 98.58 49.5086 98.5746ZM52.8958 96.7884V92.0876H54.1885V96.9529L52.8958 96.7884Z" fill="white"/>
<path d="M59.6922 97.3076H67.3608V98.466H58.3462V85.7236H67.0897V86.882H59.6922V97.3076ZM59.5463 91.4252H66.2858V92.572H59.5463V91.4252Z" fill="white"/>
<path d="M71.0215 98.466V85.7236H72.1312L80.935 96.8002H80.3535V85.7236H81.6833V98.466H80.5736L71.7814 87.3894H72.3629V98.466H71.0215Z" fill="white"/>
<path d="M85.9424 98.4658V85.7235H91.1343C92.3759 85.6965 93.605 85.9749 94.7137 86.5343C95.707 87.0454 96.5369 87.8247 97.1093 88.7839C97.6701 89.7994 97.9642 90.9404 97.9642 92.1004C97.9642 93.2604 97.6701 94.4015 97.1093 95.4169C96.5365 96.3712 95.7084 97.1463 94.7184 97.6549C93.6097 98.2143 92.3805 98.4928 91.1389 98.4658H85.9424ZM87.2884 97.3074H91.0602C92.0809 97.3335 93.0921 97.105 94.0025 96.6425C94.8089 96.2237 95.4809 95.5862 95.9416 94.8029C96.3961 93.9722 96.6342 93.0404 96.6342 92.0935C96.6342 91.1465 96.3961 90.2148 95.9416 89.384C95.4783 88.6052 94.8067 87.9713 94.0025 87.5537C93.0921 87.0912 92.0809 86.8627 91.0602 86.8888H87.2884V97.3074Z" fill="white"/>
<path d="M104.583 98.5765C103.655 98.5807 102.734 98.4239 101.86 98.1131C101.107 97.8745 100.418 97.4663 99.8472 96.92L100.375 95.882C100.901 96.3657 101.516 96.7405 102.187 96.9848C102.951 97.282 103.763 97.4329 104.583 97.4296C105.248 97.4518 105.912 97.3504 106.54 97.1308C106.983 96.9756 107.369 96.6935 107.652 96.3199C107.885 95.9892 108.009 95.5939 108.007 95.1893C108.028 94.7481 107.875 94.3163 107.581 93.9869C107.266 93.6658 106.883 93.4202 106.459 93.2687C105.96 93.0817 105.449 92.927 104.93 92.8053C104.37 92.6741 103.81 92.5312 103.253 92.3767C102.718 92.2349 102.202 92.0304 101.714 91.7674C101.262 91.5262 100.874 91.1797 100.584 90.7573C100.278 90.2633 100.128 89.6883 100.155 89.1078C100.15 88.4913 100.325 87.8867 100.658 87.3678C101.036 86.8023 101.57 86.3595 102.196 86.0936C103.038 85.7424 103.945 85.5772 104.856 85.6094C105.577 85.6108 106.294 85.7122 106.987 85.9106C107.636 86.085 108.251 86.3652 108.808 86.74L108.345 87.815C107.812 87.4556 107.225 87.1848 106.605 87.0134C106.027 86.8477 105.429 86.762 104.828 86.7585C104.183 86.7376 103.54 86.8422 102.935 87.0667C102.495 87.2302 102.112 87.5184 101.833 87.8961C101.597 88.242 101.473 88.6521 101.478 89.0707C101.457 89.5119 101.61 89.9437 101.904 90.2731C102.22 90.5964 102.607 90.8402 103.035 90.9844C103.539 91.1681 104.052 91.3228 104.573 91.4477C105.133 91.5821 105.689 91.728 106.241 91.8856C106.771 92.0345 107.284 92.2396 107.771 92.4972C108.222 92.7316 108.61 93.0718 108.901 93.4888C109.206 93.9732 109.354 94.5391 109.327 95.1105C109.33 95.7219 109.153 96.3205 108.818 96.8319C108.433 97.398 107.892 97.8406 107.261 98.1061C106.412 98.4517 105.499 98.6121 104.583 98.5765Z" fill="white"/>
<path d="M37.4508 116.999C36.513 117.009 35.5817 116.842 34.7054 116.508C33.894 116.195 33.1536 115.722 32.5276 115.118C31.9128 114.521 31.4257 113.805 31.0958 113.014C30.413 111.319 30.413 109.425 31.0958 107.73C31.4266 106.937 31.9172 106.221 32.5369 105.626C33.1674 105.024 33.9106 104.551 34.7239 104.236C35.6001 103.901 36.5313 103.734 37.4693 103.743C38.3987 103.732 39.3224 103.889 40.1961 104.206C41.0024 104.504 41.7264 104.989 42.3091 105.622L41.4518 106.495C40.945 105.975 40.3284 105.574 39.6471 105.323C38.9652 105.084 38.2473 104.965 37.5249 104.971C36.765 104.962 36.0104 105.097 35.3008 105.369C34.6414 105.626 34.0403 106.013 33.5331 106.507C33.0314 106.993 32.6327 107.575 32.3608 108.219C31.8017 109.594 31.8017 111.132 32.3608 112.507C32.6314 113.154 33.0302 113.74 33.5331 114.228C34.0398 114.722 34.6411 115.108 35.3008 115.364C36.0037 115.637 36.7523 115.773 37.5064 115.764C38.2241 115.769 38.9377 115.656 39.6193 115.431C40.3062 115.192 40.9319 114.804 41.4518 114.296L42.2349 115.336C41.5991 115.89 40.8586 116.312 40.0571 116.575C39.2171 116.857 38.3368 117 37.4508 116.999ZM40.912 115.176V110.38H42.2349V115.35L40.912 115.176Z" fill="white"/>
<path d="M45.843 116.895V103.868H50.7199C51.6957 103.842 52.6659 104.023 53.5672 104.398C54.3162 104.712 54.9543 105.243 55.3998 105.923C55.8427 106.647 56.0642 107.485 56.0369 108.334C56.0598 109.171 55.8367 109.996 55.3951 110.707C54.9498 111.387 54.3117 111.918 53.5625 112.233C52.6608 112.607 51.6909 112.788 50.7152 112.764H46.6076L47.2331 112.134V116.897L45.843 116.895ZM47.2331 112.243L46.6191 111.592H50.6967C51.9987 111.592 52.988 111.306 53.6645 110.734C54.341 110.163 54.6792 109.363 54.6792 108.334C54.6792 107.292 54.341 106.485 53.6645 105.913C52.988 105.342 51.9987 105.057 50.6967 105.058H46.6076L47.2215 104.407L47.2331 112.243ZM54.7534 116.895L51.4033 112.169H52.893L56.2616 116.895H54.7534Z" fill="white"/>
<path d="M64.7206 117C63.7889 117.008 62.8639 116.841 61.9937 116.508C61.181 116.198 60.4401 115.725 59.8159 115.118C59.2036 114.519 58.7162 113.804 58.3818 113.015C57.6992 111.326 57.6992 109.438 58.3818 107.749C58.7186 106.955 59.2109 106.238 59.8296 105.638C60.4484 105.038 61.1811 104.569 61.9844 104.257C63.7428 103.599 65.6798 103.599 67.4381 104.257C68.2458 104.573 68.9829 105.045 69.6067 105.647C70.2215 106.244 70.7086 106.96 71.0384 107.751C71.7212 109.446 71.7212 111.34 71.0384 113.036C70.7086 113.826 70.2215 114.542 69.6067 115.139C68.9829 115.741 68.2458 116.214 67.4381 116.529C66.57 116.856 65.648 117.015 64.7206 117ZM64.7206 115.772C65.4625 115.78 66.199 115.644 66.8891 115.371C67.5372 115.114 68.1262 114.728 68.6197 114.236C69.1095 113.745 69.4983 113.164 69.7642 112.524C70.3109 111.143 70.3109 109.606 69.7642 108.226C69.4989 107.586 69.11 107.004 68.6197 106.514C68.1257 106.021 67.5369 105.634 66.8891 105.376C65.489 104.845 63.9428 104.845 62.5428 105.376C61.8908 105.632 61.2985 106.019 60.8029 106.514C59.7858 107.541 59.2153 108.929 59.2153 110.375C59.2153 111.821 59.7858 113.208 60.8029 114.236C61.2982 114.73 61.8906 115.117 62.5428 115.371C63.2357 115.646 63.9752 115.784 64.7206 115.779V115.772Z" fill="white"/>
<path d="M79.8431 116.999C78.1828 116.999 76.8738 116.521 75.9162 115.567C74.9586 114.612 74.4813 113.198 74.4844 111.323V103.867H75.8606V111.281C75.8606 112.825 76.2081 113.961 76.9031 114.687C77.5981 115.412 78.5781 115.779 79.8431 115.785C81.122 115.785 82.1089 115.419 82.804 114.687C83.499 113.954 83.8465 112.819 83.8465 111.281V103.867H85.1856V111.33C85.1856 113.205 84.7115 114.619 83.7631 115.574C82.8148 116.528 81.5081 117.003 79.8431 116.999Z" fill="white"/>
<path d="M89.2881 116.895V103.868H94.1649C95.1408 103.842 96.1109 104.023 97.0122 104.398C97.7609 104.713 98.3988 105.244 98.8448 105.923C99.2894 106.647 99.5125 107.485 99.4866 108.334C99.5095 109.171 99.2864 109.996 98.8448 110.707C98.3981 111.388 97.7607 111.922 97.0122 112.243C96.1123 112.623 95.1416 112.807 94.1649 112.783H90.0503L90.6643 112.131V116.895H89.2881ZM90.6643 112.243L90.0503 111.573H94.1279C95.4299 111.573 96.4192 111.291 97.0957 110.725C97.7722 110.16 98.1104 109.363 98.1104 108.334C98.1104 107.292 97.7722 106.485 97.0957 105.913C96.4192 105.342 95.4299 105.057 94.1279 105.058H90.0503L90.6643 104.407V112.243Z" fill="white"/>
</svg>
