<svg width="25" height="25" viewBox="0 0 25 25" fill="none" xmlns="http://www.w3.org/2000/svg">
<rect x="25" y="0.0117188" width="24.0147" height="24.0147" rx="6" transform="rotate(90 25 0.0117188)" fill="#101015"/>
<path d="M13.5236 15.5503C13.2305 15.8434 12.7553 15.8434 12.4623 15.5503L7.68636 10.7744C7.39329 10.4813 7.39329 10.0061 7.68636 9.71308C7.97944 9.42 8.4546 9.42 8.74768 9.71308L12.9929 13.9583L17.2382 9.71308C17.5312 9.42 18.0064 9.42 18.2995 9.71308C18.5925 10.0061 18.5925 10.4813 18.2995 10.7744L13.5236 15.5503ZM13.7434 15.0195L13.7434 15.0196L12.2425 15.0196L12.2425 15.0195L13.7434 15.0195Z" fill="white"/>
</svg>
