<svg width="16" height="17" viewBox="0 0 16 17" fill="none" xmlns="http://www.w3.org/2000/svg">
<path d="M1.33057 5.69153H7.6639" stroke="#0A0A0C" stroke-miterlimit="10" stroke-linecap="round" stroke-linejoin="round"/>
<path d="M3.99707 11.0248H5.3304" stroke="#0A0A0C" stroke-miterlimit="10" stroke-linecap="round" stroke-linejoin="round"/>
<path d="M6.99707 11.0248H9.66374" stroke="#0A0A0C" stroke-miterlimit="10" stroke-linecap="round" stroke-linejoin="round"/>
<path d="M14.6639 8.04482V10.7648C14.6639 13.1048 14.0706 13.6915 11.7039 13.6915H4.29057C1.9239 13.6915 1.33057 13.1048 1.33057 10.7648V5.28482C1.33057 2.94482 1.9239 2.35815 4.29057 2.35815H9.6639" stroke="#0A0A0C" stroke-linecap="round" stroke-linejoin="round"/>
<path d="M12.7171 2.77815L10.2438 5.25149C10.1504 5.34482 10.0571 5.53149 10.0371 5.66482L9.90375 6.61149C9.85709 6.95149 10.0971 7.19149 10.4371 7.14482L11.3838 7.01149C11.5171 6.99149 11.7038 6.89815 11.7971 6.80482L14.2704 4.33149C14.6971 3.90482 14.8971 3.41149 14.2704 2.78482C13.6371 2.15149 13.1438 2.35149 12.7171 2.77815Z" stroke="#0A0A0C" stroke-miterlimit="10" stroke-linecap="round" stroke-linejoin="round"/>
<path d="M12.3638 3.13147C12.5771 3.8848 13.1638 4.47147 13.9104 4.67814" stroke="#0A0A0C" stroke-miterlimit="10" stroke-linecap="round" stroke-linejoin="round"/>
</svg>
