<svg width="25" height="25" viewBox="0 0 25 25" fill="none" xmlns="http://www.w3.org/2000/svg">
<path d="M17.2 19.0048H7.79995C7.37995 19.0048 6.90995 18.6748 6.76995 18.2748L2.62995 6.69477C2.03996 5.03477 2.72996 4.52477 4.14996 5.54477L8.04995 8.33477C8.69995 8.78477 9.43995 8.55477 9.71995 7.82477L11.48 3.13477C12.04 1.63477 12.97 1.63477 13.53 3.13477L15.29 7.82477C15.57 8.55477 16.31 8.78477 16.95 8.33477L20.61 5.72477C22.17 4.60477 22.92 5.17477 22.28 6.98477L18.24 18.2948C18.09 18.6748 17.62 19.0048 17.2 19.0048Z" stroke="white" stroke-width="1.5" stroke-linecap="round" stroke-linejoin="round"/>
<path d="M7 22.0244H18" stroke="white" stroke-width="1.5" stroke-linecap="round" stroke-linejoin="round"/>
<path d="M10 14.0244H15" stroke="white" stroke-width="1.5" stroke-linecap="round" stroke-linejoin="round"/>
</svg>
