<svg width="61" height="62" viewBox="0 0 61 62" fill="none" xmlns="http://www.w3.org/2000/svg">
<g clip-path="url(#clip0_1788_24246)">
<path d="M56.9085 41.5195V5.44664C56.8341 2.43429 54.4537 0.0244141 51.478 0.0244141H14.4317C6.39756 0.175031 0 6.80219 0 14.9355C0 17.6466 0.743902 20.0565 1.85976 22.0898C2.82683 23.8219 4.31463 25.4034 5.72805 26.6084C6.17439 26.9849 5.95122 26.8343 7.21585 27.5874C8.92683 28.6417 10.9354 29.1689 10.9354 29.1689V50.7071C11.0098 51.7615 11.0841 52.7405 11.3817 53.6442C12.2 56.6565 14.2829 58.9911 17.1098 60.1207C18.3 60.5726 19.639 60.8738 21.0524 60.9491L50.5854 61.0997C56.4622 61.0997 61.2976 56.28 61.2976 50.2553C61.2976 46.7158 59.5866 43.4775 56.9085 41.5195Z" fill="#FFEEDA"/>
<path d="M57.6521 50.4808C57.5034 54.3216 54.379 57.4092 50.5851 57.4092L30.2021 57.3339C31.8387 55.4512 32.8058 52.966 32.8058 50.2549C32.8058 46.0376 30.3509 43.1006 30.3509 43.1006H50.6595C54.5278 43.1006 57.7265 46.3389 57.7265 50.2549L57.6521 50.4808Z" fill="#EBC28E"/>
<path d="M7.6622 23.596C5.28171 21.3368 3.64512 18.3997 3.64512 14.9355V14.559C3.86829 8.68491 8.62927 3.86516 14.4317 3.71454H51.5524C52.5195 3.78985 53.2634 4.46762 53.2634 5.44664V37.3022C54.0817 37.4528 54.528 37.6034 55.3463 37.8294C56.0159 38.0553 56.9085 38.5824 56.9085 38.5824V5.44664C56.8341 2.43429 54.4537 0.0244141 51.478 0.0244141H14.4317C6.39756 0.175031 0 6.80219 0 14.9355C0 19.68 2.15732 23.7466 5.57927 26.5331C5.80244 26.759 6.02561 26.9849 6.69512 26.9849C7.81098 26.9849 8.55488 26.0812 8.48049 25.1775C8.48049 24.3491 8.18293 24.0479 7.6622 23.596Z" fill="#101010"/>
<path d="M50.5856 39.4123H21.4991C19.5649 39.4123 18.0027 40.9938 18.0027 43.0271V47.2444C18.0771 49.2024 19.7137 50.8592 21.6478 50.8592H23.8052V47.2444H21.6478V43.1024C21.6478 43.1024 22.1686 43.1024 22.8381 43.1024C26.4832 43.1024 29.2356 46.5666 29.2356 50.2567C29.2356 53.5703 26.26 57.7123 21.3503 57.411C16.9612 57.1098 14.5808 53.1938 14.5808 50.2567V14.3345C14.5808 12.753 13.2417 11.3975 11.6795 11.3975H8.77832V15.0876H10.9356V50.332C10.7869 57.4864 15.9942 61.1012 21.3503 61.1012L50.66 61.1765C56.5369 61.1765 61.3722 56.3567 61.3722 50.332C61.2978 44.3073 56.5369 39.4123 50.5856 39.4123ZM57.6527 50.4826C57.5039 54.3234 54.3795 57.411 50.5856 57.411L30.2027 57.3357C31.8393 55.453 32.8064 52.9678 32.8064 50.2567C32.8064 46.0394 30.3515 43.1024 30.3515 43.1024H50.66C54.5283 43.1024 57.7271 46.3407 57.7271 50.2567L57.6527 50.4826Z" fill="#101010"/>
<path d="M42.7742 15.689H20.8291V12.0742H42.7742C43.7413 12.0742 44.5596 12.9026 44.5596 13.8816C44.5596 14.8606 43.8157 15.689 42.7742 15.689Z" fill="#101010"/>
<path d="M42.7742 33.0095H20.8291V29.3193H42.7742C43.7413 29.3193 44.5596 30.1477 44.5596 31.1267C44.5596 32.1811 43.8157 33.0095 42.7742 33.0095Z" fill="#101010"/>
<path d="M46.6425 24.3493H20.8291V20.6592H46.6425C47.6096 20.6592 48.4279 21.4876 48.4279 22.4666C48.4279 23.5209 47.6096 24.3493 46.6425 24.3493Z" fill="#101010"/>
</g>
<defs>
<clipPath id="clip0_1788_24246">
<rect width="61" height="61" fill="white" transform="translate(0 0.0244141)"/>
</clipPath>
</defs>
</svg>
