<svg width="24" height="25" viewBox="0 0 24 25" fill="none" xmlns="http://www.w3.org/2000/svg">
<path d="M10.7499 2.47473C11.4499 1.88473 12.5799 1.88473 13.2599 2.47473L14.8399 3.82473C15.1399 4.07473 15.7099 4.28473 16.1099 4.28473H17.8099C18.8699 4.28473 19.7399 5.15473 19.7399 6.21473V7.91473C19.7399 8.31473 19.9499 8.87473 20.1999 9.17473L21.5499 10.7547C22.1399 11.4547 22.1399 12.5847 21.5499 13.2647L20.1999 14.8447C19.9499 15.1447 19.7399 15.7047 19.7399 16.1047V17.8047C19.7399 18.8647 18.8699 19.7347 17.8099 19.7347H16.1099C15.7099 19.7347 15.1499 19.9447 14.8499 20.1947L13.2699 21.5447C12.5699 22.1347 11.4399 22.1347 10.7599 21.5447L9.17988 20.1947C8.87988 19.9447 8.30988 19.7347 7.91988 19.7347H6.16988C5.10988 19.7347 4.23988 18.8647 4.23988 17.8047V16.0947C4.23988 15.7047 4.03988 15.1347 3.78988 14.8447L2.43988 13.2547C1.85988 12.5647 1.85988 11.4447 2.43988 10.7547L3.78988 9.16473C4.03988 8.86473 4.23988 8.30473 4.23988 7.91473V6.22473C4.23988 5.16473 5.10988 4.29473 6.16988 4.29473H7.89988C8.29988 4.29473 8.85988 4.08473 9.15988 3.83473L10.7499 2.47473Z" stroke="#0A0A0C" stroke-width="1.5" stroke-linecap="round" stroke-linejoin="round"/>
<path d="M8.5 15.965L12 8.08496L15.5 15.965" stroke="#0A0A0C" stroke-width="1.5" stroke-linejoin="bevel"/>
<path d="M13.75 13.335H10.25" stroke="#0A0A0C" stroke-width="1.5" stroke-linecap="round" stroke-linejoin="round"/>
</svg>
