<svg width="61" height="62" viewBox="0 0 61 62" fill="none" xmlns="http://www.w3.org/2000/svg">
<g clip-path="url(#clip0_1788_24274)">
<path d="M2.26074 29.8023C2.26074 45.5288 15.0306 58.2774 30.7835 58.2774C46.5362 58.2774 59.3078 45.5288 59.3078 29.8023C59.3078 14.0758 46.5362 1.32715 30.7835 1.32715C15.0306 1.32715 2.26074 14.0757 2.26074 29.8023Z" fill="#0C0C4F" stroke="#EC796B" stroke-width="2.17037"/>
<path fill-rule="evenodd" clip-rule="evenodd" d="M17.8233 22.8921L18.5487 20.6547C18.6962 20.1996 19.056 19.8455 19.5135 19.7059L21.7655 19.0144C22.0773 18.9194 22.0798 18.4803 21.7706 18.3802L19.5287 17.656C19.0736 17.5088 18.7189 17.1497 18.5783 16.6929L17.8865 14.4446C17.7913 14.1341 17.3515 14.1308 17.2512 14.4404L16.5258 16.6778C16.3784 17.132 16.0186 17.4861 15.561 17.6266L13.3089 18.3171C12.9973 18.413 12.9938 18.8513 13.3039 18.9514L15.5459 19.6755C16.0008 19.8228 16.3556 20.1827 16.4963 20.6395L17.188 22.887C17.2832 23.1983 17.723 23.2016 17.8233 22.8921Z" fill="#FAFAFA"/>
<path fill-rule="evenodd" clip-rule="evenodd" d="M53.42 21.5868C52.4921 20.5504 51.0423 19.9669 49.6338 19.7275C48.2143 19.4976 46.7255 19.519 45.3234 19.7675C42.4867 20.2465 39.9105 21.4191 37.6631 22.8655C36.4954 23.5754 35.5003 24.3968 34.4694 25.2333C33.9724 25.6564 33.5199 26.107 33.0478 26.551L31.7586 27.8314C30.358 29.2929 28.9775 30.6242 27.6418 31.7277C26.3006 32.8261 25.0468 33.6603 23.8111 34.2428C22.5761 34.8284 21.2548 35.1728 19.5326 35.2279C17.8255 35.2879 15.8058 34.9804 13.6453 34.4726C11.4732 33.9673 9.19233 33.2467 6.64355 32.6267C7.53286 35.0899 8.87209 37.2665 10.5916 39.2563C12.3311 41.2115 14.5033 42.9937 17.2939 44.1656C20.0442 45.3636 23.5003 45.7936 26.7319 45.1449C29.9721 44.5222 32.8155 43.0254 35.114 41.2943C37.4179 39.5454 39.2822 37.5534 40.8535 35.4823C41.2876 34.9101 41.5177 34.5898 41.8313 34.1426L42.6994 32.8594C43.3017 32.0656 43.8508 31.1618 44.4477 30.3754C45.6186 28.7283 46.7721 27.0831 48.1123 25.5674C48.7873 24.7987 49.4992 24.0633 50.3391 23.3567C50.758 23.0117 51.2105 22.6741 51.7119 22.37C52.2208 22.0421 52.758 21.7853 53.42 21.5868Z" fill="url(#paint0_linear_1788_24274)"/>
<path fill-rule="evenodd" clip-rule="evenodd" d="M53.42 21.5924C52.4227 19.0798 50.5681 16.9647 48.0798 15.4039C45.6056 13.8604 42.1699 13.0725 38.7656 13.744C37.0836 14.0688 35.4537 14.6941 34.0234 15.5267C32.6004 16.356 31.3248 17.3542 30.2205 18.4253C29.6692 18.9626 29.1687 19.5231 28.6716 20.0867L27.3832 21.7267L25.393 24.3667C22.856 27.7633 20.1239 31.7441 15.6404 32.9236C11.2389 34.0815 9.32993 33.056 6.64355 32.6323C7.13471 33.8984 7.74317 35.1279 8.56802 36.2095C9.37746 37.313 10.3336 38.3495 11.5223 39.2379C12.1231 39.6646 12.7574 40.0858 13.4618 40.4429C14.1629 40.788 14.9192 41.0918 15.7262 41.3204C17.3318 41.7597 19.1393 41.9136 20.8894 41.6773C22.6404 41.4441 24.3139 40.8901 25.7768 40.1545C27.2504 39.4257 28.5342 38.5381 29.6805 37.6015C31.959 35.7123 33.7315 33.6249 35.229 31.5151C35.9822 30.4602 36.6647 29.3853 37.2974 28.3103L38.0418 27.0303C38.2686 26.6562 38.4987 26.2797 38.7331 25.929C39.675 24.5205 40.5974 23.3911 41.7174 22.5434C42.8221 21.6737 44.3598 21.0312 46.4151 20.8818C48.4629 20.7308 50.8253 21.0099 53.42 21.5924Z" fill="#FAFAFA"/>
<path fill-rule="evenodd" clip-rule="evenodd" d="M42.3457 42.4643C42.3457 44.3099 43.8454 45.8067 45.6946 45.8067C47.5426 45.8067 49.0402 44.3099 49.0402 42.4643C49.0402 40.6189 47.5426 39.1221 45.6946 39.1221C43.8454 39.1221 42.3457 40.6189 42.3457 42.4643Z" fill="url(#paint1_linear_1788_24274)"/>
</g>
<defs>
<linearGradient id="paint0_linear_1788_24274" x1="53.1704" y1="20.7052" x2="-23.2201" y2="60.5162" gradientUnits="userSpaceOnUse">
<stop stop-color="#EC796B"/>
<stop offset="1" stop-color="#D672EF"/>
</linearGradient>
<linearGradient id="paint1_linear_1788_24274" x1="49.038" y1="40.1197" x2="36.8384" y2="41.2653" gradientUnits="userSpaceOnUse">
<stop stop-color="#EC796B"/>
<stop offset="1" stop-color="#D672EF"/>
</linearGradient>
<clipPath id="clip0_1788_24274">
<rect width="61" height="61" fill="white" transform="translate(0 0.0244141)"/>
</clipPath>
</defs>
</svg>
