<svg width="61" height="62" viewBox="0 0 61 62" fill="none" xmlns="http://www.w3.org/2000/svg">
<g clip-path="url(#clip0_1788_24290)">
<path d="M45.2225 19.9918H40.1727C39.8813 19.9915 39.5934 19.9291 39.3281 19.8086C39.0627 19.6882 38.8262 19.5125 38.6342 19.2934L36.5859 16.9809C36.4345 16.8115 36.2491 16.6759 36.0417 16.5831C35.8343 16.4903 35.6097 16.4424 35.3825 16.4424C35.1553 16.4424 34.9307 16.4903 34.7233 16.5831C34.5159 16.6759 34.3305 16.8115 34.1791 16.9809L32.4234 18.963C32.1406 19.2855 31.7922 19.5441 31.4016 19.7215C31.011 19.8989 30.5871 19.9911 30.1581 19.9918H2.52128C1.72447 22.2756 1.2202 24.651 1.02051 27.0615H27.1094C27.3354 27.0612 27.559 27.015 27.7667 26.9258C27.9744 26.8366 28.1618 26.7061 28.3175 26.5424L30.7528 24.0033C30.9035 23.8478 31.0839 23.7242 31.2834 23.6399C31.4828 23.5556 31.6972 23.5123 31.9137 23.5125H32.0081C32.2358 23.5136 32.4608 23.5619 32.6688 23.6545C32.8767 23.7472 33.0632 23.882 33.2163 24.0505L35.2645 26.363C35.4561 26.5827 35.6926 26.7587 35.958 26.8792C36.2234 26.9996 36.5116 27.0618 36.803 27.0615H58.0876C57.8924 24.6504 57.388 22.2743 56.5868 19.9918H45.2602H45.2225Z" fill="#E3E3E3"/>
<path d="M16.8009 41.9263C17.0268 41.9249 17.2501 41.8782 17.4576 41.7891C17.6651 41.6999 17.8527 41.57 18.0091 41.4071L20.4349 38.8681C20.5866 38.7139 20.7672 38.5911 20.9664 38.5069C21.1657 38.4227 21.3796 38.3786 21.5959 38.3773H21.6997C21.9274 38.3783 22.1523 38.4267 22.3603 38.5193C22.5683 38.6119 22.7548 38.7468 22.9079 38.9153L24.9466 41.2278C25.1394 41.446 25.3761 41.621 25.6413 41.7414C25.9064 41.8618 26.194 41.9248 26.4852 41.9263H55.3396C56.439 39.6661 57.2325 37.2696 57.6993 34.8H29.9964C29.7074 34.7989 29.4219 34.737 29.1585 34.6183C28.895 34.4996 28.6595 34.3267 28.4673 34.1109L26.4191 31.7984C26.268 31.6268 26.0821 31.4892 25.8738 31.3949C25.6656 31.3005 25.4396 31.2514 25.2109 31.251C24.9835 31.2503 24.7585 31.2989 24.5516 31.3934C24.3447 31.4879 24.1607 31.6261 24.0122 31.7984L22.2566 33.7806C21.971 34.1016 21.6206 34.3585 21.2285 34.5342C20.8364 34.7099 20.4115 34.8005 19.9818 34.8H1.40625C1.86844 37.2756 2.65883 39.6785 3.7565 41.9452L16.8009 41.9263Z" fill="#E3E3E3"/>
<path d="M37.2738 12.265C37.5013 12.2649 37.7263 12.2189 37.9356 12.1297C38.1448 12.0405 38.3338 11.9099 38.4914 11.7459L40.9172 9.21631C41.0667 9.05866 41.2468 8.93302 41.4463 8.84703C41.6459 8.76104 41.8608 8.71648 42.0782 8.71605H42.182C42.4095 8.7154 42.6344 8.764 42.8413 8.8585C43.0482 8.953 43.2322 9.09116 43.3807 9.2635L45.4289 11.576C45.6233 11.7916 45.8606 11.9642 46.1255 12.0829C46.3904 12.2015 46.6772 12.2636 46.9674 12.265H52.4514C49.7835 8.71271 46.3257 5.82979 42.3514 3.8443C38.3772 1.85881 33.9955 0.825195 29.5528 0.825195C25.1102 0.825195 20.7285 1.85881 16.7543 3.8443C12.78 5.82979 9.32221 8.71271 6.6543 12.265H37.2738Z" fill="#E3E3E3"/>
<path d="M26.2489 49.008H18.745C18.455 49.0076 18.1685 48.9451 17.9048 48.8246C17.641 48.7041 17.4061 48.5285 17.2159 48.3096L15.1772 45.997C15.0249 45.8274 14.8386 45.6918 14.6305 45.5989C14.4223 45.506 14.1969 45.458 13.969 45.458C13.7411 45.458 13.5157 45.506 13.3075 45.5989C13.0994 45.6918 12.9131 45.8274 12.7608 45.997L10.9958 48.017C10.7133 48.34 10.365 48.5989 9.97435 48.7763C9.58366 48.9537 9.15955 49.0456 8.73045 49.0458H8.61719C11.2959 51.9192 14.5374 54.2106 18.1399 55.7773C21.7424 57.3441 25.6288 58.1526 29.5572 58.1526C33.4856 58.1526 37.372 57.3441 40.9745 55.7773C44.5769 54.2106 47.8184 51.9192 50.4972 49.0458L26.2489 49.008Z" fill="#E3E3E3"/>
</g>
<defs>
<clipPath id="clip0_1788_24290">
<rect width="61" height="61" fill="white" transform="translate(0 0.0244141)"/>
</clipPath>
</defs>
</svg>
