<svg width="25" height="25" viewBox="0 0 25 25" fill="none" xmlns="http://www.w3.org/2000/svg">
<path d="M19.1701 18.6944L21.3901 17.5844V14.8044M14.7201 9.80441L12.5001 10.9144L14.7201 9.80441ZM12.5001 10.9144L10.2801 9.80441L12.5001 10.9144ZM12.5001 10.9144V13.6944V10.9144ZM21.3901 6.46442L19.1701 7.57442L21.3901 6.46442ZM21.3901 6.46442L19.1701 5.35442L21.3901 6.46442ZM21.3901 6.46442V9.24442V6.46442ZM14.7201 3.13441L12.5001 2.02441L10.2801 3.13441H14.7201ZM3.61011 6.46442L5.83011 5.35442L3.61011 6.46442ZM3.61011 6.46442L5.83011 7.57442L3.61011 6.46442ZM3.61011 6.46442V9.24442V6.46442ZM12.5001 22.0244L10.2801 20.9144L12.5001 22.0244ZM12.5001 22.0244L14.7201 20.9144L12.5001 22.0244ZM12.5001 22.0244V19.2444V22.0244ZM5.83011 18.6944L3.61011 17.5844V14.8044L5.83011 18.6944Z" stroke="white" stroke-width="1.5" stroke-linecap="round" stroke-linejoin="round"/>
</svg>
