<svg width="16" height="17" viewBox="0 0 16 17" fill="none" xmlns="http://www.w3.org/2000/svg">
<path d="M6.3335 9.19148C6.3335 9.83814 6.83351 10.3581 7.44684 10.3581H8.70015C9.23349 10.3581 9.66683 9.90481 9.66683 9.33815C9.66683 8.73148 9.40017 8.51148 9.00684 8.37148L7.00016 7.67148C6.60683 7.53148 6.34017 7.31815 6.34017 6.70481C6.34017 6.14481 6.77349 5.68481 7.30682 5.68481H8.56016C9.17349 5.68481 9.6735 6.20481 9.6735 6.85148" stroke="#0A0A0C" stroke-linecap="round" stroke-linejoin="round"/>
<path d="M8 5.02478V11.0248" stroke="#0A0A0C" stroke-linecap="round" stroke-linejoin="round"/>
<path d="M14.6668 8.02482C14.6668 11.7048 11.6802 14.6915 8.00016 14.6915C4.32016 14.6915 1.3335 11.7048 1.3335 8.02482C1.3335 4.34482 4.32016 1.35815 8.00016 1.35815" stroke="#0A0A0C" stroke-linecap="round" stroke-linejoin="round"/>
<path d="M11.3335 2.02478V4.69145H14.0002" stroke="#0A0A0C" stroke-linecap="round" stroke-linejoin="round"/>
<path d="M14.6668 1.35815L11.3335 4.69149" stroke="#0A0A0C" stroke-linecap="round" stroke-linejoin="round"/>
</svg>
