<svg width="15" height="12" viewBox="0 0 15 12" fill="none" xmlns="http://www.w3.org/2000/svg">
<path d="M0.548998 6.43316C1.00458 6.90573 1.46302 7.38127 1.9186 7.85383C2.64638 8.60874 3.37416 9.36366 4.10194 10.1186C4.26813 10.291 4.43431 10.4633 4.6005 10.6357C5.09332 11.1469 5.92998 11.1469 6.42281 10.6357C6.68928 10.3593 6.95289 10.0859 7.21936 9.80947C7.85831 9.1467 8.49441 8.48689 9.13336 7.82411C9.90985 7.01867 10.6835 6.2162 11.46 5.41076C12.1276 4.71826 12.7952 4.02576 13.4628 3.33326C13.7866 2.99741 14.1189 2.66454 14.437 2.32274C14.4427 2.3168 14.4456 2.31383 14.4513 2.30788C14.6863 2.06417 14.8295 1.70455 14.8295 1.36275C14.8295 1.03582 14.6891 0.643505 14.4513 0.417625C14.2049 0.182828 13.884 0.0104461 13.5402 0.0253066C13.1992 0.0401671 12.8754 0.162024 12.629 0.417625C12.3625 0.69403 12.0989 0.967464 11.8325 1.24387C11.1935 1.90665 10.5574 2.56646 9.91845 3.22924C9.14196 4.03468 8.36833 4.83714 7.59184 5.64258C6.92424 6.33508 6.25663 7.02759 5.58902 7.72009C5.26524 8.05593 4.93287 8.38881 4.61482 8.7306C4.60909 8.73655 4.60623 8.73952 4.6005 8.74546C5.20793 8.74546 5.81537 8.74546 6.42281 8.74546C5.96723 8.2729 5.50879 7.79736 5.05321 7.3248C4.32543 6.56988 3.59765 5.81497 2.86987 5.06005C2.70368 4.88767 2.5375 4.71529 2.37131 4.54291C2.13636 4.29919 1.78966 4.15059 1.46016 4.15059C1.14498 4.15059 0.766759 4.29622 0.548998 4.54291C0.322641 4.79851 0.156456 5.13138 0.170782 5.48804C0.185109 5.84172 0.302584 6.17756 0.548998 6.43316Z" fill="white"/>
</svg>
