<svg width="24" height="25" viewBox="0 0 24 25" fill="none" xmlns="http://www.w3.org/2000/svg">
<path d="M4.5 10.0005H6.5C8.5 10.0005 9.5 9.00049 9.5 7.00049V5.00049C9.5 3.00049 8.5 2.00049 6.5 2.00049H4.5C2.5 2.00049 1.5 3.00049 1.5 5.00049V7.00049C1.5 9.00049 2.5 10.0005 4.5 10.0005Z" stroke="#0A0A0C" stroke-width="1.35629" stroke-miterlimit="10" stroke-linecap="round" stroke-linejoin="round"/>
<path d="M16.5002 10.0005H18.5002C20.5002 10.0005 21.5002 9.00049 21.5002 7.00049V5.00049C21.5002 3.00049 20.5002 2.00049 18.5002 2.00049H16.5002C14.5002 2.00049 13.5002 3.00049 13.5002 5.00049V7.00049C13.5002 9.00049 14.5002 10.0005 16.5002 10.0005Z" stroke="#0A0A0C" stroke-width="1.35629" stroke-miterlimit="10" stroke-linecap="round" stroke-linejoin="round"/>
<path d="M16.5002 21.9995H18.5002C20.5002 21.9995 21.5002 20.9995 21.5002 18.9995V16.9995C21.5002 14.9995 20.5002 13.9995 18.5002 13.9995H16.5002C14.5002 13.9995 13.5002 14.9995 13.5002 16.9995V18.9995C13.5002 20.9995 14.5002 21.9995 16.5002 21.9995Z" stroke="#0A0A0C" stroke-width="1.35629" stroke-miterlimit="10" stroke-linecap="round" stroke-linejoin="round"/>
<path d="M4.5 21.9995H6.5C8.5 21.9995 9.5 20.9995 9.5 18.9995V16.9995C9.5 14.9995 8.5 13.9995 6.5 13.9995H4.5C2.5 13.9995 1.5 14.9995 1.5 16.9995V18.9995C1.5 20.9995 2.5 21.9995 4.5 21.9995Z" stroke="#0A0A0C" stroke-width="1.35629" stroke-miterlimit="10" stroke-linecap="round" stroke-linejoin="round"/>
</svg>
