<svg width="16" height="17" viewBox="0 0 16 17" fill="none" xmlns="http://www.w3.org/2000/svg">
<path d="M14.6667 5.69076C14.6667 8.08409 12.7267 10.0241 10.3333 10.0241C10.22 10.0241 10.1 10.0174 9.98667 10.0108C9.82001 7.89743 8.12666 6.20408 6.01333 6.03741C6.00666 5.92408 6 5.80409 6 5.69076C6 3.29742 7.94 1.35742 10.3333 1.35742C12.7267 1.35742 14.6667 3.29742 14.6667 5.69076Z" stroke="white" stroke-linecap="round" stroke-linejoin="round"/>
<path d="M10.0007 10.3577C10.0007 12.7511 8.06065 14.6911 5.66732 14.6911C3.27398 14.6911 1.33398 12.7511 1.33398 10.3577C1.33398 7.96441 3.27398 6.02441 5.66732 6.02441C5.78065 6.02441 5.90064 6.03107 6.01398 6.03774C8.12731 6.20441 9.82066 7.89775 9.98733 10.0111C9.99399 10.1244 10.0007 10.2444 10.0007 10.3577Z" stroke="white" stroke-linecap="round" stroke-linejoin="round"/>
<path d="M5.08 9.77043L5.66667 8.69043L6.25334 9.77043L7.33333 10.3571L6.25334 10.9438L5.66667 12.0238L5.08 10.9438L4 10.3571L5.08 9.77043Z" stroke="white" stroke-linecap="round" stroke-linejoin="round"/>
</svg>
