<svg width="25" height="34" viewBox="0 0 25 34" fill="none" xmlns="http://www.w3.org/2000/svg">
<path d="M12.6484 27.5V29.6" stroke="#E0C170" stroke-width="1.5" stroke-linecap="round" stroke-linejoin="round"/>
<path d="M7.64844 33H17.6484V32C17.6484 30.9 16.7484 30 15.6484 30H9.64844C8.54844 30 7.64844 30.9 7.64844 32V33V33Z" stroke="#E0C170" stroke-width="1.5" stroke-miterlimit="10"/>
<path d="M6.64844 33H18.6484" stroke="#E0C170" stroke-width="1.5" stroke-linecap="round" stroke-linejoin="round"/>
<path d="M12.5 27C8.63 27 5.5 23.87 5.5 20V17C5.5 14.79 7.29 13 9.5 13H15.5C17.71 13 19.5 14.79 19.5 17V20C19.5 23.87 16.37 27 12.5 27Z" stroke="#E0C170" stroke-width="1.5" stroke-linecap="round" stroke-linejoin="round"/>
<path d="M5.96906 22.6496C5.21906 22.4096 4.55906 21.9696 4.03906 21.4496C3.13906 20.4496 2.53906 19.2496 2.53906 17.8496C2.53906 16.4496 3.63906 15.3496 5.03906 15.3496H5.68906C5.48906 15.8096 5.38906 16.3196 5.38906 16.8496V19.8496C5.38906 20.8496 5.59906 21.7896 5.96906 22.6496Z" stroke="#E0C170" stroke-width="1.5" stroke-linecap="round" stroke-linejoin="round"/>
<path d="M19.0293 22.6496C19.7793 22.4096 20.4393 21.9696 20.9593 21.4496C21.8593 20.4496 22.4593 19.2496 22.4593 17.8496C22.4593 16.4496 21.3593 15.3496 19.9593 15.3496H19.3093C19.5093 15.8096 19.6093 16.3196 19.6093 16.8496V19.8496C19.6093 20.8496 19.3993 21.7896 19.0293 22.6496Z" stroke="#E0C170" stroke-width="1.5" stroke-linecap="round" stroke-linejoin="round"/>
</svg>
