<svg width="24" height="25" viewBox="0 0 24 25" fill="none" xmlns="http://www.w3.org/2000/svg">
<path d="M9 22.0005H15C20 22.0005 22 20.0005 22 15.0005V9.00049C22 4.00049 20 2.00049 15 2.00049H9C4 2.00049 2 4.00049 2 9.00049V15.0005C2 20.0005 4 22.0005 9 22.0005Z" stroke="white" stroke-width="1.5" stroke-linecap="round" stroke-linejoin="round"/>
<path d="M16.2812 13.6111C15.1512 14.7411 13.5312 15.0911 12.1012 14.6411L9.51117 17.2211C9.33117 17.4111 8.96117 17.5311 8.69117 17.4911L7.49117 17.3311C7.09117 17.2811 6.73117 16.9011 6.67117 16.5111L6.51117 15.3111C6.47117 15.0511 6.60117 14.6811 6.78117 14.4911L9.36117 11.9111C8.92117 10.4811 9.26117 8.86111 10.3912 7.73111C12.0112 6.11111 14.6512 6.11111 16.2812 7.73111C17.9012 9.34111 17.9012 11.9811 16.2812 13.6111Z" stroke="white" stroke-width="1.5" stroke-miterlimit="10" stroke-linecap="round" stroke-linejoin="round"/>
<path d="M10.4496 16.2804L9.59961 15.4204" stroke="white" stroke-width="1.5" stroke-miterlimit="10" stroke-linecap="round" stroke-linejoin="round"/>
<path d="M13.3949 10.6997H13.4039" stroke="white" stroke-width="1.5" stroke-linecap="round" stroke-linejoin="round"/>
</svg>
