<svg width="23" height="22" viewBox="0 0 23 22" fill="none" xmlns="http://www.w3.org/2000/svg">
<path d="M5.5 9.0249V7.0249C5.5 3.7149 6.5 1.0249 11.5 1.0249C16.5 1.0249 17.5 3.7149 17.5 7.0249V9.0249" stroke="white" stroke-width="1.5" stroke-linecap="round" stroke-linejoin="round"/>
<path d="M11.5 17.5249C12.8807 17.5249 14 16.4056 14 15.0249C14 13.6442 12.8807 12.5249 11.5 12.5249C10.1193 12.5249 9 13.6442 9 15.0249C9 16.4056 10.1193 17.5249 11.5 17.5249Z" stroke="white" stroke-width="1.5" stroke-linecap="round" stroke-linejoin="round"/>
<path d="M16.5 21.0249H6.5C2.5 21.0249 1.5 20.0249 1.5 16.0249V14.0249C1.5 10.0249 2.5 9.0249 6.5 9.0249H16.5C20.5 9.0249 21.5 10.0249 21.5 14.0249V16.0249C21.5 20.0249 20.5 21.0249 16.5 21.0249Z" stroke="white" stroke-width="1.5" stroke-linecap="round" stroke-linejoin="round"/>
</svg>
