<svg width="241" height="36" viewBox="0 0 241 36" fill="none" xmlns="http://www.w3.org/2000/svg">
<mask id="mask0_1782_29154" style="mask-type:luminance" maskUnits="userSpaceOnUse" x="0" y="0" width="241" height="36">
<path d="M0 0.0493164H241V35.8636H0V0.0493164Z" fill="white"/>
</mask>
<g mask="url(#mask0_1782_29154)">
<path d="M40.4897 28.2868L33.879 35.375C33.7361 35.529 33.5629 35.6519 33.3703 35.7359C33.1778 35.82 32.97 35.8635 32.7598 35.8637H1.42238C1.27292 35.8636 1.12672 35.82 1.00169 35.7381C0.876666 35.6562 0.778235 35.5396 0.718452 35.4026C0.658668 35.2656 0.640128 35.1142 0.6651 34.9668C0.690072 34.8194 0.757474 34.6826 0.859051 34.5729L7.4623 27.4847C7.60528 27.3307 7.77845 27.2079 7.97101 27.1238C8.16357 27.0397 8.37138 26.9962 8.5815 26.996H39.919C40.0698 26.9929 40.2182 27.0344 40.3455 27.1154C40.4727 27.1965 40.5732 27.3133 40.6342 27.4513C40.6952 27.5893 40.7141 27.7422 40.6884 27.8909C40.6627 28.0395 40.5936 28.1773 40.4897 28.2868ZM33.879 14.0096C33.7355 13.8563 33.5622 13.7339 33.3698 13.6499C33.1774 13.5659 32.9698 13.522 32.7598 13.5209H1.42238C1.27292 13.5209 1.12672 13.5646 1.00169 13.6465C0.876666 13.7284 0.778235 13.845 0.718452 13.982C0.658668 14.119 0.640128 14.2704 0.6651 14.4178C0.690072 14.5651 0.757474 14.702 0.859051 14.8117L7.4623 21.9036C7.60584 22.0569 7.77911 22.1793 7.97154 22.2633C8.16398 22.3473 8.37152 22.3912 8.5815 22.3923H39.919C40.0681 22.3915 40.2138 22.3474 40.3383 22.2652C40.4627 22.183 40.5606 22.0664 40.6199 21.9295C40.6792 21.7927 40.6975 21.6415 40.6724 21.4945C40.6473 21.3475 40.5799 21.2109 40.4786 21.1015L33.879 14.0096ZM1.42238 8.91724H32.7598C32.97 8.91706 33.1778 8.87357 33.3704 8.78948C33.5629 8.7054 33.7361 8.58252 33.879 8.42852L40.4897 1.34029C40.5672 1.25837 40.6257 1.16034 40.6609 1.05321C40.6961 0.946079 40.7072 0.832496 40.6934 0.720578C40.6796 0.60866 40.6413 0.501172 40.5811 0.405797C40.5209 0.310422 40.4404 0.229515 40.3454 0.168862C40.2181 0.0878894 40.0698 0.0463545 39.919 0.0494808H8.5815C8.37138 0.0497019 8.16357 0.0932109 7.97101 0.177294C7.77845 0.261378 7.60528 0.384232 7.4623 0.538196L0.859051 7.62643C0.757474 7.73607 0.690072 7.87296 0.6651 8.02032C0.640128 8.16768 0.658668 8.31913 0.718452 8.45612C0.778235 8.5931 0.876666 8.70968 1.00169 8.79159C1.12672 8.87349 1.27292 8.91715 1.42238 8.91724Z" fill="url(#paint0_linear_1782_29154)"/>
<path d="M78.6955 15.196H61.93V9.67462H83.0529V4.15326H61.874C61.1504 4.14923 60.433 4.2878 59.7629 4.56105C59.0929 4.83431 58.4832 5.23689 57.9687 5.7458C57.4543 6.25472 57.0451 6.86 56.7646 7.52708C56.4841 8.19415 56.3378 8.90995 56.334 9.63359V15.2296C56.3368 15.9538 56.4824 16.6704 56.7625 17.3384C57.0425 18.0063 57.4516 18.6125 57.9661 19.1222C58.4807 19.6319 59.0907 20.0351 59.7612 20.3088C60.4318 20.5826 61.1497 20.7214 61.874 20.7173H78.6619V26.2387H56.7332V31.7601H78.6955C79.7854 31.7662 80.8525 31.4488 81.762 30.8483C82.6714 30.2477 83.3823 29.3908 83.8046 28.3861C84.0853 27.7191 84.2317 27.0033 84.2355 26.2797V20.6838C84.2326 19.9595 84.087 19.2429 83.8069 18.575C83.5268 17.9071 83.1178 17.301 82.6033 16.7913C82.0887 16.2816 81.4787 15.8783 80.8082 15.6046C80.1377 15.3309 79.4197 15.192 78.6955 15.196ZM111.175 4.15326H94.3456C93.2539 4.14456 92.1842 4.46028 91.2722 5.06037C90.3602 5.66046 89.647 6.51789 89.223 7.5239C88.9414 8.19179 88.7944 8.90875 88.7906 9.63359V26.2797C88.7944 27.0046 88.9414 27.7216 89.223 28.3898C89.647 29.3958 90.3602 30.2533 91.2722 30.8533C92.1842 31.4533 93.2539 31.7689 94.3456 31.7601H111.175C111.898 31.7641 112.616 31.6255 113.286 31.3523C113.956 31.079 114.565 30.6764 115.08 30.1675C115.594 29.6586 116.003 29.0533 116.284 28.3863C116.564 27.7192 116.711 27.0034 116.715 26.2797V9.63359C116.711 8.90997 116.564 8.19419 116.284 7.52718C116.003 6.86016 115.594 6.25498 115.079 5.74625C114.565 5.23717 113.956 4.83444 113.286 4.56111C112.615 4.28777 111.898 4.14918 111.175 4.15326ZM111.134 26.2387H94.3866V9.67462H111.126L111.134 26.2387ZM170.119 4.15326H153.704C152.98 4.14923 152.263 4.2878 151.593 4.56105C150.923 4.83431 150.313 5.23689 149.799 5.7458C149.284 6.25472 148.875 6.86 148.595 7.52708C148.314 8.19415 148.168 8.90995 148.164 9.63359V31.7601H153.76V22.6909H170.1V31.7601H175.696V9.63359C175.692 8.90675 175.545 8.18783 175.262 7.51826C174.979 6.84869 174.567 6.2417 174.048 5.73227C173.53 5.22284 172.916 4.82105 172.241 4.55005C171.567 4.27905 170.846 4.14419 170.119 4.15326ZM170.078 17.1695H153.738V9.67462H170.078V17.1695ZM235.461 4.15326H219.046C218.323 4.14923 217.605 4.2878 216.935 4.56105C216.265 4.83431 215.655 5.23689 215.141 5.7458C214.627 6.25472 214.217 6.86 213.937 7.52708C213.656 8.19415 213.51 8.90995 213.506 9.63359V31.7601H219.102V22.6909H235.405V31.7601H241.001V9.63359C240.997 8.90997 240.851 8.19419 240.57 7.52718C240.29 6.86016 239.881 6.25498 239.366 5.74625C238.327 4.71848 236.923 4.14547 235.461 4.15326ZM235.405 17.1695H219.065V9.67462H235.405V17.1695ZM202.949 26.2387H200.71L192.708 6.46626C192.434 5.78403 191.962 5.19932 191.353 4.78718C190.744 4.37504 190.026 4.15429 189.291 4.15326H184.325C183.598 4.14934 182.887 4.36119 182.28 4.76198C181.674 5.16276 181.2 5.73447 180.919 6.40471C180.732 6.84956 180.634 7.32682 180.632 7.8093V31.7601H186.228V9.67462H188.466L196.465 29.4471C196.743 30.128 197.219 30.7104 197.83 31.1198C198.441 31.5292 199.161 31.7469 199.897 31.7451H204.862C205.345 31.7477 205.823 31.6552 206.27 31.4727C206.717 31.2903 207.123 31.0216 207.466 30.6819C208.159 29.9962 208.551 29.0636 208.556 28.0891V4.15326H202.949V26.2387ZM127.254 4.15326H121.658V26.2797C121.661 27.0049 121.808 27.7222 122.09 28.3905C122.372 29.0587 122.783 29.6648 123.299 30.1738C123.816 30.6829 124.427 31.0851 125.1 31.3573C125.772 31.6295 126.491 31.7664 127.216 31.7601H144.004V26.2387H127.254V4.15326Z" fill="white"/>
</g>
<defs>
<linearGradient id="paint0_linear_1782_29154" x1="4.03383" y1="36.718" x2="36.8934" y2="-0.327317" gradientUnits="userSpaceOnUse">
<stop offset="0.08" stop-color="#9945FF"/>
<stop offset="0.3" stop-color="#8752F3"/>
<stop offset="0.5" stop-color="#5497D5"/>
<stop offset="0.6" stop-color="#43B4CA"/>
<stop offset="0.72" stop-color="#28E0B9"/>
<stop offset="0.97" stop-color="#19FB9B"/>
</linearGradient>
</defs>
</svg>
