<svg width="22" height="22" viewBox="0 0 22 22" fill="none" xmlns="http://www.w3.org/2000/svg">
<path d="M11 21C16.5228 21 21 16.5228 21 11C21 5.47715 16.5228 1 11 1C5.47715 1 1 5.47715 1 11C1 16.5228 5.47715 21 11 21Z" stroke="white" stroke-width="1.35629" stroke-linecap="round" stroke-linejoin="round"/>
<path d="M7.68011 10.9098L9.33011 11.3198L8.38013 15.1599C8.16013 16.0599 8.60011 16.3598 9.36011 15.8298L14.5401 12.2398C15.1701 11.7998 15.0801 11.2898 14.3301 11.0998L12.6801 10.6898L13.6301 6.84981C13.8501 5.94981 13.4101 5.64983 12.6501 6.17983L7.47012 9.76986C6.84012 10.2099 6.93011 10.7198 7.68011 10.9098Z" stroke="white" stroke-width="1.35629" stroke-miterlimit="10" stroke-linecap="round" stroke-linejoin="round"/>
</svg>
