<svg width="22" height="22" viewBox="0 0 22 22" fill="none" xmlns="http://www.w3.org/2000/svg">
<path d="M9.11005 10.1494H6.46005C5.83005 10.1494 5.32007 10.6594 5.32007 11.2894V16.4094H9.11005V10.1494V10.1494Z" stroke="white" stroke-width="1.35629" stroke-miterlimit="10" stroke-linecap="round" stroke-linejoin="round"/>
<path d="M11.7613 5.59961H10.2413C9.6113 5.59961 9.10132 6.10962 9.10132 6.73962V16.3997H12.8913V6.73962C12.8913 6.10962 12.3913 5.59961 11.7613 5.59961Z" stroke="white" stroke-width="1.35629" stroke-miterlimit="10" stroke-linecap="round" stroke-linejoin="round"/>
<path d="M15.5482 11.8496H12.8982V16.3997H16.6882V12.9896C16.6782 12.3596 16.1682 11.8496 15.5482 11.8496Z" stroke="white" stroke-width="1.35629" stroke-miterlimit="10" stroke-linecap="round" stroke-linejoin="round"/>
<path d="M8 21H14C19 21 21 19 21 14V8C21 3 19 1 14 1H8C3 1 1 3 1 8V14C1 19 3 21 8 21Z" stroke="white" stroke-width="1.35629" stroke-linecap="round" stroke-linejoin="round"/>
</svg>
