<svg width="22" height="22" viewBox="0 0 22 22" fill="none" xmlns="http://www.w3.org/2000/svg">
<path d="M9.0488 1.53321L3.0288 5.46321C1.0988 6.72321 1.0988 9.54321 3.0288 10.8032L9.0488 14.7332C10.1288 15.4432 11.9088 15.4432 12.9888 14.7332L18.9788 10.8032C20.8988 9.54321 20.8988 6.73321 18.9788 5.47321L12.9888 1.54321C11.9088 0.82321 10.1288 0.82321 9.0488 1.53321Z" stroke="white" stroke-width="1.35629" stroke-linecap="round" stroke-linejoin="round"/>
<path d="M4.6289 12.083L4.6189 16.773C4.6189 18.043 5.5989 19.403 6.7989 19.803L9.9889 20.863C10.5389 21.043 11.4489 21.043 12.0089 20.863L15.1989 19.803C16.3989 19.403 17.3789 18.043 17.3789 16.773V12.133" stroke="white" stroke-width="1.35629" stroke-linecap="round" stroke-linejoin="round"/>
<path d="M20.3987 14.0029V8.00293" stroke="white" stroke-width="1.35629" stroke-linecap="round" stroke-linejoin="round"/>
</svg>
