<svg width="22" height="22" viewBox="0 0 22 22" fill="none" xmlns="http://www.w3.org/2000/svg">
<path d="M7.00007 21H15.0001C19.0201 21 19.7401 19.39 19.9501 17.43L20.7001 9.43C20.9701 6.99 20.2701 5 16.0001 5H6.00007C1.73007 5 1.03007 6.99 1.30007 9.43L2.05007 17.43C2.26007 19.39 2.98007 21 7.00007 21Z" stroke="white" stroke-width="1.35629" stroke-miterlimit="10" stroke-linecap="round" stroke-linejoin="round"/>
<path d="M7 5V4.2C7 2.43 7 1 10.2 1H11.8C15 1 15 2.43 15 4.2V5" stroke="white" stroke-width="1.35629" stroke-miterlimit="10" stroke-linecap="round" stroke-linejoin="round"/>
<path d="M13 12V13C13 13.01 13 13.01 13 13.02C13 14.11 12.99 15 11 15C9.02 15 9 14.12 9 13.03V12C9 11 9 11 10 11H12C13 11 13 11 13 12Z" stroke="white" stroke-width="1.35629" stroke-miterlimit="10" stroke-linecap="round" stroke-linejoin="round"/>
<path d="M20.65 10C18.34 11.68 15.7 12.68 13 13.02" stroke="white" stroke-width="1.35629" stroke-miterlimit="10" stroke-linecap="round" stroke-linejoin="round"/>
<path d="M1.62012 10.2705C3.87012 11.8105 6.41012 12.7405 9.00012 13.0305" stroke="white" stroke-width="1.35629" stroke-miterlimit="10" stroke-linecap="round" stroke-linejoin="round"/>
</svg>
