<svg width="22" height="22" viewBox="0 0 22 22" fill="none" xmlns="http://www.w3.org/2000/svg">
<path d="M16 17.4356H12L7.54999 20.3956C6.88999 20.8356 6 20.3656 6 19.5656V17.4356C3 17.4356 1 15.4356 1 12.4356V6.43555C1 3.43555 3 1.43555 6 1.43555H16C19 1.43555 21 3.43555 21 6.43555V12.4356C21 15.4356 19 17.4356 16 17.4356Z" stroke="white" stroke-width="1.5" stroke-miterlimit="10" stroke-linecap="round" stroke-linejoin="round"/>
<path d="M11.0001 10.3652V10.1553C11.0001 9.47527 11.4201 9.11526 11.8401 8.82526C12.2501 8.54526 12.66 8.18527 12.66 7.52527C12.66 6.60527 11.9201 5.86523 11.0001 5.86523C10.0801 5.86523 9.34009 6.60527 9.34009 7.52527" stroke="white" stroke-width="1.5" stroke-linecap="round" stroke-linejoin="round"/>
<path d="M10.9955 12.7559H11.0045" stroke="white" stroke-width="1.5" stroke-linecap="round" stroke-linejoin="round"/>
</svg>
