<svg width="22" height="22" viewBox="0 0 22 22" fill="none" xmlns="http://www.w3.org/2000/svg">
<path d="M17.1396 20.6198C16.2596 20.8798 15.2196 20.9998 13.9996 20.9998H7.99962C6.77962 20.9998 5.73962 20.8798 4.85962 20.6198C5.07962 18.0198 7.74962 15.9697 10.9996 15.9697C14.2496 15.9697 16.9196 18.0198 17.1396 20.6198Z" stroke="white" stroke-width="1.35629" stroke-linecap="round" stroke-linejoin="round"/>
<path d="M14 1H8C3 1 1 3 1 8V14C1 17.78 2.14 19.85 4.86 20.62C5.08 18.02 7.75 15.97 11 15.97C14.25 15.97 16.92 18.02 17.14 20.62C19.86 19.85 21 17.78 21 14V8C21 3 19 1 14 1ZM11 13.17C9.02 13.17 7.42 11.56 7.42 9.58002C7.42 7.60002 9.02 6 11 6C12.98 6 14.58 7.60002 14.58 9.58002C14.58 11.56 12.98 13.17 11 13.17Z" stroke="white" stroke-width="1.35629" stroke-linecap="round" stroke-linejoin="round"/>
<path d="M14.5797 9.58002C14.5797 11.56 12.9797 13.17 10.9997 13.17C9.01968 13.17 7.41968 11.56 7.41968 9.58002C7.41968 7.60002 9.01968 6 10.9997 6C12.9797 6 14.5797 7.60002 14.5797 9.58002Z" stroke="white" stroke-width="1.35629" stroke-linecap="round" stroke-linejoin="round"/>
</svg>
