<svg width="13" height="14" viewBox="0 0 13 14" fill="none" xmlns="http://www.w3.org/2000/svg">
<path d="M1.7545 9.24971C1.29293 9.65443 1.24685 10.3567 1.65157 10.8183C2.05629 11.2798 2.75855 11.3259 3.22011 10.9212L1.7545 9.24971ZM12.7592 2.12394C12.7994 1.51139 12.3354 0.982228 11.7229 0.942032L1.74072 0.286998C1.12816 0.246802 0.599003 0.71079 0.558806 1.32334C0.518611 1.9359 0.982598 2.46506 1.59515 2.50525L10.4682 3.0875L9.88591 11.9605C9.84572 12.5731 10.3097 13.1022 10.9223 13.1424C11.5348 13.1826 12.064 12.7186 12.1042 12.1061L12.7592 2.12394ZM3.22011 10.9212L12.3829 2.88689L10.9173 1.21542L1.7545 9.24971L3.22011 10.9212Z" fill="white"/>
</svg>
