<svg width="24" height="35" viewBox="0 0 24 35" fill="none" xmlns="http://www.w3.org/2000/svg">
<path d="M12.1504 28.0249V30.1249" stroke="#E0C170" stroke-width="1.5" stroke-linecap="round" stroke-linejoin="round"/>
<path d="M7.15039 33.5249H17.1504V32.5249C17.1504 31.4249 16.2504 30.5249 15.1504 30.5249H9.15039C8.05039 30.5249 7.15039 31.4249 7.15039 32.5249V33.5249V33.5249Z" stroke="#E0C170" stroke-width="1.5" stroke-miterlimit="10"/>
<path d="M6.15039 33.5249H18.1504" stroke="#E0C170" stroke-width="1.5" stroke-linecap="round" stroke-linejoin="round"/>
<path d="M12 27.5249C8.13 27.5249 5 24.3949 5 20.5249V17.5249C5 15.3149 6.79 13.5249 9 13.5249H15C17.21 13.5249 19 15.3149 19 17.5249V20.5249C19 24.3949 15.87 27.5249 12 27.5249Z" stroke="#E0C170" stroke-width="1.5" stroke-linecap="round" stroke-linejoin="round"/>
<path d="M5.47004 23.1745C4.72004 22.9345 4.06004 22.4945 3.54004 21.9745C2.64004 20.9745 2.04004 19.7745 2.04004 18.3745C2.04004 16.9745 3.14004 15.8745 4.54004 15.8745H5.19004C4.99004 16.3345 4.89004 16.8445 4.89004 17.3745V20.3745C4.89004 21.3745 5.10004 22.3145 5.47004 23.1745Z" stroke="#E0C170" stroke-width="1.5" stroke-linecap="round" stroke-linejoin="round"/>
<path d="M18.5303 23.1745C19.2803 22.9345 19.9403 22.4945 20.4603 21.9745C21.3603 20.9745 21.9603 19.7745 21.9603 18.3745C21.9603 16.9745 20.8603 15.8745 19.4603 15.8745H18.8103C19.0103 16.3345 19.1103 16.8445 19.1103 17.3745V20.3745C19.1103 21.3745 18.9003 22.3145 18.5303 23.1745Z" stroke="#E0C170" stroke-width="1.5" stroke-linecap="round" stroke-linejoin="round"/>
</svg>
