<svg width="16" height="17" viewBox="0 0 16 17" fill="none" xmlns="http://www.w3.org/2000/svg">
<path d="M8.01242 1.96387C5.80575 1.96387 4.01242 3.7572 4.01242 5.96387V7.89053C4.01242 8.2972 3.83908 8.9172 3.63242 9.26387L2.86575 10.5372C2.39242 11.3239 2.71908 12.1972 3.58575 12.4905C6.45908 13.4505 9.55908 13.4505 12.4324 12.4905C13.2391 12.2239 13.5924 11.2705 13.1524 10.5372L12.3857 9.26387C12.1857 8.9172 12.0124 8.2972 12.0124 7.89053V5.96387C12.0124 3.76387 10.2124 1.96387 8.01242 1.96387Z" stroke="black" stroke-miterlimit="10" stroke-linecap="round"/>
<path d="M9.24596 2.15738C9.0393 2.09738 8.82596 2.05072 8.60596 2.02405C7.96596 1.94405 7.35263 1.99072 6.7793 2.15738C6.97263 1.66405 7.45263 1.31738 8.01263 1.31738C8.57263 1.31738 9.05263 1.66405 9.24596 2.15738Z" stroke="black" stroke-miterlimit="10" stroke-linecap="round" stroke-linejoin="round"/>
<path d="M10.0117 12.7305C10.0117 13.8305 9.11172 14.7305 8.01172 14.7305C7.46505 14.7305 6.95838 14.5038 6.59838 14.1438C6.23838 13.7838 6.01172 13.2771 6.01172 12.7305" stroke="black" stroke-miterlimit="10"/>
</svg>
