<svg width="16" height="17" viewBox="0 0 16 17" fill="none" xmlns="http://www.w3.org/2000/svg">
<path d="M8 10.0244C9.10457 10.0244 10 9.12898 10 8.02441C10 6.91984 9.10457 6.02441 8 6.02441C6.89543 6.02441 6 6.91984 6 8.02441C6 9.12898 6.89543 10.0244 8 10.0244Z" stroke="white" stroke-miterlimit="10" stroke-linecap="round" stroke-linejoin="round"/>
<path d="M1.33398 8.61169V7.43836C1.33398 6.74502 1.90065 6.17169 2.60065 6.17169C3.80732 6.17169 4.30065 5.31836 3.69398 4.27169C3.34732 3.67169 3.55398 2.89169 4.16065 2.54502L5.31398 1.88502C5.84065 1.57169 6.52065 1.75836 6.83398 2.28502L6.90732 2.41169C7.50732 3.45836 8.49398 3.45836 9.10065 2.41169L9.17398 2.28502C9.48732 1.75836 10.1673 1.57169 10.694 1.88502L11.8473 2.54502C12.454 2.89169 12.6607 3.67169 12.314 4.27169C11.7073 5.31836 12.2007 6.17169 13.4073 6.17169C14.1007 6.17169 14.674 6.73836 14.674 7.43836V8.61169C14.674 9.30502 14.1073 9.87836 13.4073 9.87836C12.2007 9.87836 11.7073 10.7317 12.314 11.7784C12.6607 12.385 12.454 13.1584 11.8473 13.505L10.694 14.165C10.1673 14.4784 9.48732 14.2917 9.17398 13.765L9.10065 13.6384C8.50065 12.5917 7.51398 12.5917 6.90732 13.6384L6.83398 13.765C6.52065 14.2917 5.84065 14.4784 5.31398 14.165L4.16065 13.505C3.55398 13.1584 3.34732 12.3784 3.69398 11.7784C4.30065 10.7317 3.80732 9.87836 2.60065 9.87836C1.90065 9.87836 1.33398 9.30502 1.33398 8.61169Z" stroke="white" stroke-miterlimit="10" stroke-linecap="round" stroke-linejoin="round"/>
</svg>
