<svg width="24" height="24" viewBox="0 0 24 24" fill="none" xmlns="http://www.w3.org/2000/svg">
<g clip-path="url(#clip0_1794_20978)">
<path d="M0 11.518C0 6.08745 0 3.37218 1.68707 1.68511C3.37413 -0.00195312 6.0894 -0.00195312 11.52 -0.00195312H12.48C17.9106 -0.00195312 20.6259 -0.00195312 22.313 1.68511C24 3.37218 24 6.08745 24 11.518V12.478C24 17.9086 24 20.6239 22.313 22.311C20.6259 23.998 17.9106 23.998 12.48 23.998H11.52C6.0894 23.998 3.37413 23.998 1.68707 22.311C0 20.6239 0 17.9086 0 12.478V11.518Z" fill="#101015"/>
<path d="M12.7698 17.2908C7.29976 17.2908 4.1798 13.5408 4.0498 7.30078H6.7898C6.8798 11.8808 8.89976 13.8208 10.4998 14.2208V7.30078H13.0799V11.2508C14.6599 11.0808 16.3197 9.28078 16.8797 7.30078H19.4597C19.0297 9.74078 17.2297 11.5408 15.9497 12.2808C17.2297 12.8808 19.2798 14.4508 20.0598 17.2908H17.2197C16.6097 15.3908 15.0899 13.9208 13.0799 13.7208V17.2908H12.7698Z" fill="white"/>
</g>
<defs>
<clipPath id="clip0_1794_20978">
<rect width="24" height="24" fill="white"/>
</clipPath>
</defs>
</svg>
