<svg width="24" height="24" viewBox="0 0 24 24" fill="none" xmlns="http://www.w3.org/2000/svg">
<path d="M0 11.52C0 6.0894 0 3.37413 1.68707 1.68707C3.37413 0 6.0894 0 11.52 0H12.48C17.9106 0 20.6259 0 22.313 1.68707C24 3.37413 24 6.0894 24 11.52V12.48C24 17.9106 24 20.6259 22.313 22.313C20.6259 24 17.9106 24 12.48 24H11.52C6.0894 24 3.37413 24 1.68707 22.313C0 20.6259 0 17.9106 0 12.48V11.52Z" fill="#101015"/>
<path d="M12.1669 17.9861H11.4423C11.2792 17.9665 11.1155 17.9501 10.9529 17.9272C9.73359 17.755 8.65559 17.2678 7.7329 16.4538C6.64596 15.4939 5.96626 14.2994 5.71626 12.8673C5.67568 12.635 5.65225 12.3997 5.62109 12.1657V11.4403C5.62858 11.3978 5.63752 11.3553 5.64307 11.3125C5.67254 11.0894 5.68969 10.864 5.73172 10.6435C5.96586 9.41176 6.52478 8.34994 7.40851 7.458C8.33265 6.52517 9.44278 5.93774 10.7399 5.71431C10.9729 5.67421 11.2087 5.65054 11.4432 5.61914H12.1679C12.3309 5.63871 12.4947 5.65513 12.6572 5.67808C13.8765 5.8503 14.9545 6.33725 15.8772 7.15149C16.9642 8.11137 17.6439 9.3058 17.8939 10.7379C17.9344 10.9703 17.9579 11.2055 17.989 11.4396V12.1642C17.9815 12.2067 17.9726 12.2492 17.967 12.292C17.9376 12.5152 17.9204 12.7405 17.8784 12.9611C17.6438 14.1933 17.0845 15.2553 16.2006 16.1472C15.2765 17.0801 14.1664 17.6673 12.8693 17.8909C12.6372 17.931 12.4014 17.9547 12.1669 17.9861ZM9.12998 11.4328H14.4615C14.4615 11.406 14.4615 11.3862 14.4615 11.3666C14.4207 10.6391 14.275 9.92124 14.0292 9.23527C14.0024 9.16136 13.9567 9.16402 13.899 9.16402C12.5027 9.16402 11.1063 9.16361 9.70968 9.16281C9.63432 9.16281 9.5935 9.18044 9.57321 9.25943C9.46983 9.65942 9.34519 10.0546 9.2592 10.4584C9.19278 10.7746 9.17177 11.1022 9.12998 11.4328ZM9.14761 12.1707C9.14761 12.2053 9.1464 12.2253 9.14761 12.2454C9.1892 12.9688 9.33414 13.6826 9.57804 14.3649C9.60703 14.4451 9.65558 14.4412 9.71669 14.4412C11.1093 14.4412 12.5017 14.4417 13.8939 14.4427C13.9756 14.4427 14.0173 14.4229 14.0388 14.3398C14.1516 13.8842 14.2804 13.4326 14.3799 12.9741C14.4357 12.714 14.4439 12.4427 14.4743 12.1707H9.14761ZM9.91113 8.43021H13.6567C13.6563 8.41925 13.6545 8.40838 13.6514 8.39784C13.22 7.60245 12.6502 6.93289 11.8804 6.44377C11.8169 6.40319 11.7756 6.41575 11.7191 6.45125C11.2542 6.74256 10.8457 7.11525 10.5131 7.55148C10.3046 7.82563 10.1227 8.11935 9.91113 8.43021ZM13.6674 15.175H9.95267C9.95292 15.1859 9.95455 15.1967 9.9575 15.2072C10.3889 16.0026 10.9587 16.6721 11.7285 17.1615C11.792 17.2018 11.8333 17.1895 11.8898 17.1542C12.2408 16.9324 12.5604 16.6643 12.8398 16.3571C13.1668 16.0015 13.445 15.604 13.6674 15.175ZM6.34113 11.434H8.4184C8.45161 10.6634 8.59276 9.90123 8.83771 9.16981C8.78747 9.16764 8.75197 9.16474 8.71694 9.1645C8.19014 9.1645 7.66333 9.16667 7.13653 9.16233C7.0503 9.16233 7.01069 9.19324 6.97252 9.26619C6.7629 9.66019 6.60523 10.0797 6.50345 10.5142C6.43509 10.8138 6.39524 11.1195 6.34113 11.434ZM17.2429 11.4352C17.2429 11.4065 17.2429 11.3906 17.2429 11.3746C17.1885 10.6229 16.9731 9.89161 16.6113 9.23044C16.5919 9.19469 16.5233 9.16764 16.4775 9.16716C15.9461 9.16281 15.4147 9.16426 14.885 9.16474C14.8509 9.16474 14.8171 9.16957 14.7712 9.1732C15.0158 9.904 15.1573 10.6653 15.1915 11.4352H17.2429ZM8.84158 14.4408C8.58554 13.6898 8.45632 12.9374 8.4167 12.1744H6.36818C6.36698 12.1959 6.36504 12.2079 6.36577 12.2198C6.41859 12.9758 6.63422 13.7114 6.99789 14.3763C7.01624 14.4101 7.07856 14.4374 7.12083 14.4381C7.43846 14.4432 7.75609 14.4408 8.07371 14.4408H8.84158ZM17.2666 12.1703H15.1912C15.1573 12.94 15.0162 13.7012 14.7722 14.4321C14.814 14.4352 14.8417 14.4393 14.8688 14.4393C15.4077 14.4393 15.9465 14.4379 16.4854 14.4415C16.5627 14.4415 16.5982 14.4118 16.6316 14.3482C16.8456 13.9474 17.0063 13.5203 17.1096 13.0777C17.1765 12.7833 17.2151 12.4814 17.2666 12.1715V12.1703ZM10.4401 6.54207C9.69277 6.56623 7.74449 7.8464 7.54353 8.43963C8.03241 8.43963 8.51888 8.43649 9.00534 8.44229C9.10196 8.4435 9.1452 8.40896 9.18505 8.32538C9.46047 7.74229 9.82335 7.2047 10.2611 6.7312C10.3176 6.67106 10.3751 6.61116 10.4401 6.54207ZM16.0939 8.43311C15.3185 7.47467 14.3608 6.84183 13.1633 6.51864C13.178 6.54392 13.1946 6.56814 13.2128 6.59111C13.7282 7.11042 14.1306 7.70776 14.4495 8.36451C14.4673 8.40147 14.5338 8.43577 14.578 8.43697C15.0487 8.44205 15.52 8.44011 15.9905 8.43987C16.0168 8.43939 16.0434 8.43625 16.0939 8.43311ZM7.53338 15.1656C7.90947 15.8765 9.83649 17.1294 10.428 17.053C10.4167 17.0388 10.4082 17.0255 10.3976 17.0146C9.89067 16.5012 9.47599 15.9042 9.17177 15.2499C9.13747 15.1775 9.0923 15.1639 9.02129 15.1644C8.59062 15.1668 8.15995 15.1656 7.72928 15.1656H7.53338ZM16.0992 15.1656C15.5767 15.1656 15.0903 15.1688 14.6041 15.163C14.5074 15.163 14.464 15.1963 14.4241 15.2796C14.1488 15.8628 13.7859 16.4004 13.348 16.8738C13.2915 16.9344 13.234 16.9946 13.1773 17.055C14.3611 16.7632 15.3183 16.1306 16.0992 15.1656Z" fill="white"/>
</svg>
