<svg width="24" height="24" viewBox="0 0 24 24" fill="none" xmlns="http://www.w3.org/2000/svg">
<g clip-path="url(#clip0_1823_14591)">
<path d="M0 11.518C0 6.08745 0 3.37218 1.68707 1.68511C3.37413 -0.00195312 6.0894 -0.00195312 11.52 -0.00195312H12.48C17.9106 -0.00195312 20.6259 -0.00195312 22.313 1.68511C24 3.37218 24 6.08745 24 11.518V12.478C24 17.9086 24 20.6239 22.313 22.311C20.6259 23.998 17.9106 23.998 12.48 23.998H11.52C6.0894 23.998 3.37413 23.998 1.68707 22.311C0 20.6239 0 17.9086 0 12.478V11.518Z" fill="#101015"/>
<g clip-path="url(#clip1_1823_14591)">
<path d="M13.1416 11.0786L17.6089 6H16.5503L12.6714 10.4097L9.57328 6H6L10.6849 12.6682L6 17.9938H7.05866L11.1549 13.3371L14.4267 17.9938H18L13.1414 11.0786H13.1416ZM11.6916 12.7269L11.217 12.0629L7.44011 6.77941H9.06615L12.1141 11.0434L12.5888 11.7074L16.5508 17.2499H14.9248L11.6916 12.7272V12.7269Z" fill="white"/>
</g>
</g>
<defs>
<clipPath id="clip0_1823_14591">
<rect width="24" height="24" fill="white"/>
</clipPath>
<clipPath id="clip1_1823_14591">
<rect width="12" height="12" fill="white" transform="translate(6 6)"/>
</clipPath>
</defs>
</svg>
