<svg width="24" height="24" viewBox="0 0 24 24" fill="none" xmlns="http://www.w3.org/2000/svg">
<path d="M0 11.52C0 6.0894 0 3.37413 1.68707 1.68707C3.37413 0 6.0894 0 11.52 0H12.48C17.9106 0 20.6259 0 22.313 1.68707C24 3.37413 24 6.0894 24 11.52V12.48C24 17.9106 24 20.6259 22.313 22.313C20.6259 24 17.9106 24 12.48 24H11.52C6.0894 24 3.37413 24 1.68707 22.313C0 20.6259 0 17.9106 0 12.48V11.52Z" fill="#101015"/>
<g clip-path="url(#clip0_1794_20964)">
<path d="M19.9145 8.01362C19.8252 7.67989 19.6496 7.37557 19.4053 7.13129C19.161 6.887 18.8567 6.71137 18.523 6.62207C17.296 6.29297 12.3738 6.29297 12.3738 6.29297C12.3738 6.29297 7.45022 6.29297 6.22451 6.62207C5.89079 6.71137 5.58647 6.887 5.34219 7.13129C5.0979 7.37557 4.92227 7.67989 4.83297 8.01362C4.49609 9.24061 4.49609 11.8022 4.49609 11.8022C4.49609 11.8022 4.49609 14.3624 4.82519 15.5907C4.91486 15.9242 5.09061 16.2284 5.33484 16.4726C5.57907 16.7168 5.88319 16.8926 6.21674 16.9822C7.44374 17.3113 12.366 17.3113 12.366 17.3113C12.366 17.3113 17.2895 17.3113 18.5152 16.9822C18.8502 16.8938 19.1559 16.7185 19.4016 16.4742C19.6473 16.2299 19.8242 15.9252 19.9145 15.5907C20.2436 14.3624 20.2436 11.8022 20.2436 11.8022C20.2436 11.8022 20.2372 9.24061 19.9145 8.01362Z" fill="white"/>
<path d="M10.7925 14.1618L14.8829 11.8011L10.7925 9.44043V14.1618Z" fill="#101015"/>
</g>
<defs>
<clipPath id="clip0_1794_20964">
<rect width="15.7398" height="11.0184" fill="white" transform="translate(4.49756 6.29297)"/>
</clipPath>
</defs>
</svg>
