<svg width="24" height="24" viewBox="0 0 24 24" fill="none" xmlns="http://www.w3.org/2000/svg">
<path d="M0 11.52C0 6.0894 0 3.37413 1.68707 1.68707C3.37413 0 6.0894 0 11.52 0H12.48C17.9106 0 20.6259 0 22.313 1.68707C24 3.37413 24 6.0894 24 11.52V12.48C24 17.9106 24 20.6259 22.313 22.313C20.6259 24 17.9106 24 12.48 24H11.52C6.0894 24 3.37413 24 1.68707 22.313C0 20.6259 0 17.9106 0 12.48V11.52Z" fill="#101015"/>
<path fill-rule="evenodd" clip-rule="evenodd" d="M6.36671 11.741C9.28038 10.4719 11.223 9.6351 12.1946 9.2307C14.9698 8.07647 15.5466 7.8758 15.9224 7.8692C16.0051 7.8678 16.19 7.88919 16.3097 7.98553C16.4107 8.06747 16.4386 8.1784 16.4518 8.25615C16.4722 8.38622 16.4778 8.51816 16.4686 8.64949C16.3181 10.2296 15.6675 14.0651 15.3364 15.8343C15.1965 16.583 14.9204 16.8337 14.6534 16.8588C14.0738 16.9122 13.6325 16.4753 13.0703 16.1067C12.1908 15.5303 11.694 15.1714 10.8401 14.6087C9.8534 13.9586 10.4932 13.6012 11.0554 13.0172C11.2025 12.8643 13.7596 10.5388 13.809 10.3276C13.8152 10.3012 13.821 10.2029 13.7624 10.1509C13.7038 10.0989 13.6179 10.1167 13.5555 10.1309C13.4673 10.1509 12.0623 11.0796 9.34034 12.9171C8.9414 13.1909 8.58018 13.3241 8.25666 13.3168C7.89969 13.309 7.21335 13.1149 6.70309 12.949C6.0773 12.7456 5.57983 12.638 5.6238 12.2927C5.64605 12.1131 5.89369 11.9292 6.36671 11.741Z" fill="white"/>
</svg>
