<svg width="21" height="21" viewBox="0 0 21 21" fill="none" xmlns="http://www.w3.org/2000/svg">
<path d="M10.5864 10.4421C12.8764 10.4421 14.7327 8.58572 14.7327 6.29576C14.7327 4.00579 12.8764 2.14941 10.5864 2.14941C8.29644 2.14941 6.44006 4.00579 6.44006 6.29576C6.44006 8.58572 8.29644 10.4421 10.5864 10.4421Z" stroke="#101015" stroke-width="1.2439" stroke-linecap="round" stroke-linejoin="round"/>
<path d="M3.46289 18.7355C3.46289 15.5263 6.6556 12.9307 10.5863 12.9307" stroke="#101015" stroke-width="1.2439" stroke-linecap="round" stroke-linejoin="round"/>
<path d="M15.7298 18.2341C17.1954 18.2341 18.3835 17.046 18.3835 15.5804C18.3835 14.1149 17.1954 12.9268 15.7298 12.9268C14.2643 12.9268 13.0762 14.1149 13.0762 15.5804C13.0762 17.046 14.2643 18.2341 15.7298 18.2341Z" stroke="#101015" stroke-width="1.2439" stroke-linecap="round" stroke-linejoin="round"/>
<path d="M18.8805 18.7326L18.0513 17.9033" stroke="#101015" stroke-width="1.2439" stroke-linecap="round" stroke-linejoin="round"/>
</svg>
