<svg width="17" height="17" viewBox="0 0 17 17" fill="none" xmlns="http://www.w3.org/2000/svg">
<path d="M15.166 4.02482V5.63815C15.166 6.69149 14.4993 7.35815 13.446 7.35815H11.166V2.69815C11.166 1.95815 11.7727 1.35815 12.5127 1.35815C13.2393 1.36482 13.906 1.65815 14.386 2.13815C14.866 2.62482 15.166 3.29149 15.166 4.02482Z" stroke="#181B21" stroke-miterlimit="10" stroke-linecap="round" stroke-linejoin="round"/>
<path d="M1.83301 4.69149V14.0248C1.83301 14.5782 2.45967 14.8915 2.89967 14.5582L4.03967 13.7048C4.30634 13.5048 4.67967 13.5315 4.91967 13.7715L6.02634 14.8848C6.28634 15.1448 6.71301 15.1448 6.97301 14.8848L8.09301 13.7648C8.32634 13.5315 8.69967 13.5048 8.95967 13.7048L10.0997 14.5582C10.5397 14.8848 11.1663 14.5715 11.1663 14.0248V2.69149C11.1663 1.95815 11.7663 1.35815 12.4997 1.35815H5.16634H4.49967C2.49967 1.35815 1.83301 2.55149 1.83301 4.02482V4.69149Z" stroke="#181B21" stroke-miterlimit="10" stroke-linecap="round" stroke-linejoin="round"/>
<path d="M6.5 8.69824H8.5" stroke="#181B21" stroke-linecap="round" stroke-linejoin="round"/>
<path d="M6.5 6.03149H8.5" stroke="#181B21" stroke-linecap="round" stroke-linejoin="round"/>
<path d="M4.49707 8.69141H4.50306" stroke="#181B21" stroke-linecap="round" stroke-linejoin="round"/>
<path d="M4.49707 6.0249H4.50306" stroke="#181B21" stroke-linecap="round" stroke-linejoin="round"/>
</svg>
