<svg width="16" height="17" viewBox="0 0 16 17" fill="none" xmlns="http://www.w3.org/2000/svg">
<path d="M6.33301 9.19148C6.33301 9.83814 6.83302 10.3581 7.44635 10.3581H8.69967C9.233 10.3581 9.66634 9.90481 9.66634 9.33815C9.66634 8.73148 9.39968 8.51148 9.00635 8.37148L6.99967 7.67148C6.60634 7.53148 6.33968 7.31815 6.33968 6.70481C6.33968 6.14481 6.773 5.68481 7.30634 5.68481H8.55967C9.17301 5.68481 9.67301 6.20481 9.67301 6.85148" stroke="black" stroke-linecap="round" stroke-linejoin="round"/>
<path d="M8 5.0249V11.0249" stroke="black" stroke-linecap="round" stroke-linejoin="round"/>
<path d="M14.6663 8.02482C14.6663 11.7048 11.6797 14.6915 7.99967 14.6915C4.31967 14.6915 1.33301 11.7048 1.33301 8.02482C1.33301 4.34482 4.31967 1.35815 7.99967 1.35815" stroke="black" stroke-linecap="round" stroke-linejoin="round"/>
<path d="M11.333 2.0249V4.69157H13.9997" stroke="black" stroke-linecap="round" stroke-linejoin="round"/>
<path d="M14.6663 1.35815L11.333 4.69149" stroke="black" stroke-linecap="round" stroke-linejoin="round"/>
</svg>
