<svg width="17" height="17" viewBox="0 0 17 17" fill="none" xmlns="http://www.w3.org/2000/svg">
<path d="M5.83398 1.48633V3.48633" stroke="black" stroke-miterlimit="10" stroke-linecap="round" stroke-linejoin="round"/>
<path d="M11.166 1.48633V3.48633" stroke="black" stroke-miterlimit="10" stroke-linecap="round" stroke-linejoin="round"/>
<path d="M14.5 5.81966V9.23966C13.9067 8.76633 13.1533 8.48633 12.3333 8.48633C11.5133 8.48633 10.7467 8.77298 10.1467 9.25964C9.34 9.89298 8.83333 10.8863 8.83333 11.9863C8.83333 12.6397 9.02001 13.2663 9.34001 13.7863C9.58667 14.193 9.90666 14.5463 10.2867 14.8197H5.83333C3.5 14.8197 2.5 13.4863 2.5 11.4863V5.81966C2.5 3.81966 3.5 2.48633 5.83333 2.48633H11.1667C13.5 2.48633 14.5 3.81966 14.5 5.81966Z" stroke="black" stroke-miterlimit="10" stroke-linecap="round" stroke-linejoin="round"/>
<path d="M5.16602 7.48633H9.16602" stroke="black" stroke-miterlimit="10" stroke-linecap="round" stroke-linejoin="round"/>
<path d="M5.16602 10.8193H6.91268" stroke="black" stroke-miterlimit="10" stroke-linecap="round" stroke-linejoin="round"/>
<path d="M15.834 11.9863C15.834 12.6397 15.6473 13.2663 15.3273 13.7863C15.1406 14.1063 14.9073 14.3863 14.634 14.613C14.0207 15.1597 13.2207 15.4863 12.334 15.4863C11.5673 15.4863 10.8606 15.2397 10.2873 14.8197C9.90731 14.5463 9.58732 14.193 9.34066 13.7863C9.02066 13.2663 8.83398 12.6397 8.83398 11.9863C8.83398 10.8863 9.34065 9.89298 10.1473 9.25964C10.7473 8.77298 11.514 8.48633 12.334 8.48633C13.154 8.48633 13.9073 8.76633 14.5007 9.23966C15.314 9.87966 15.834 10.873 15.834 11.9863Z" stroke="black" stroke-miterlimit="10" stroke-linecap="round" stroke-linejoin="round"/>
<path d="M12.3327 13.6527C12.3327 12.7327 13.0793 11.986 13.9993 11.986C13.0793 11.986 12.3327 11.2393 12.3327 10.3193C12.3327 11.2393 11.586 11.986 10.666 11.986C11.586 11.986 12.3327 12.7327 12.3327 13.6527Z" stroke="black" stroke-linecap="round" stroke-linejoin="round"/>
</svg>
