<svg width="16" height="16" viewBox="0 0 16 16" fill="none" xmlns="http://www.w3.org/2000/svg">
<path d="M14.6667 5.66048C14.6667 8.05382 12.7267 9.99382 10.3333 9.99382C10.22 9.99382 10.1 9.98716 9.98667 9.98049C9.82001 7.86716 8.12666 6.17381 6.01333 6.00714C6.00666 5.89381 6 5.77382 6 5.66048C6 3.26715 7.94 1.32715 10.3333 1.32715C12.7267 1.32715 14.6667 3.26715 14.6667 5.66048Z" stroke="white" stroke-linecap="round" stroke-linejoin="round"/>
<path d="M10.0007 10.3275C10.0007 12.7208 8.06065 14.6608 5.66732 14.6608C3.27398 14.6608 1.33398 12.7208 1.33398 10.3275C1.33398 7.93414 3.27398 5.99414 5.66732 5.99414C5.78065 5.99414 5.90064 6.0008 6.01398 6.00747C8.12731 6.17413 9.82066 7.86748 9.98733 9.98081C9.99399 10.0941 10.0007 10.2141 10.0007 10.3275Z" stroke="white" stroke-linecap="round" stroke-linejoin="round"/>
<path d="M5.08 9.74015L5.66667 8.66016L6.25334 9.74015L7.33333 10.3268L6.25334 10.9135L5.66667 11.9935L5.08 10.9135L4 10.3268L5.08 9.74015Z" stroke="white" stroke-linecap="round" stroke-linejoin="round"/>
</svg>
