<svg width="17" height="16" viewBox="0 0 17 16" fill="none" xmlns="http://www.w3.org/2000/svg">
<path d="M5.83398 1.32715V3.32715" stroke="black" stroke-miterlimit="10" stroke-linecap="round" stroke-linejoin="round"/>
<path d="M11.166 1.32715V3.32715" stroke="black" stroke-miterlimit="10" stroke-linecap="round" stroke-linejoin="round"/>
<path d="M14.5 5.66048V9.08048C13.9067 8.60715 13.1533 8.32715 12.3333 8.32715C11.5133 8.32715 10.7467 8.6138 10.1467 9.10046C9.34 9.7338 8.83333 10.7271 8.83333 11.8271C8.83333 12.4805 9.02001 13.1072 9.34001 13.6272C9.58667 14.0338 9.90666 14.3871 10.2867 14.6605H5.83333C3.5 14.6605 2.5 13.3271 2.5 11.3271V5.66048C2.5 3.66048 3.5 2.32715 5.83333 2.32715H11.1667C13.5 2.32715 14.5 3.66048 14.5 5.66048Z" stroke="black" stroke-miterlimit="10" stroke-linecap="round" stroke-linejoin="round"/>
<path d="M5.16602 7.32715H9.16602" stroke="black" stroke-miterlimit="10" stroke-linecap="round" stroke-linejoin="round"/>
<path d="M5.16602 10.6602H6.91268" stroke="black" stroke-miterlimit="10" stroke-linecap="round" stroke-linejoin="round"/>
<path d="M15.834 11.8271C15.834 12.4805 15.6473 13.1072 15.3273 13.6272C15.1406 13.9472 14.9073 14.2272 14.634 14.4538C14.0207 15.0005 13.2207 15.3271 12.334 15.3271C11.5673 15.3271 10.8606 15.0805 10.2873 14.6605C9.90731 14.3871 9.58732 14.0338 9.34066 13.6272C9.02066 13.1072 8.83398 12.4805 8.83398 11.8271C8.83398 10.7271 9.34065 9.7338 10.1473 9.10046C10.7473 8.6138 11.514 8.32715 12.334 8.32715C13.154 8.32715 13.9073 8.60715 14.5007 9.08049C15.314 9.72049 15.834 10.7138 15.834 11.8271Z" stroke="black" stroke-miterlimit="10" stroke-linecap="round" stroke-linejoin="round"/>
<path d="M12.3327 13.4935C12.3327 12.5735 13.0793 11.8268 13.9993 11.8268C13.0793 11.8268 12.3327 11.0802 12.3327 10.1602C12.3327 11.0802 11.586 11.8268 10.666 11.8268C11.586 11.8268 12.3327 12.5735 12.3327 13.4935Z" stroke="black" stroke-linecap="round" stroke-linejoin="round"/>
</svg>
