<svg width="35" height="35" viewBox="0 0 35 35" fill="none" xmlns="http://www.w3.org/2000/svg">
<path d="M0 16.7899C0 8.92476 0 4.99223 2.44338 2.54885C4.88676 0.105469 8.8193 0.105469 16.6844 0.105469H18.0748C25.94 0.105469 29.8725 0.105469 32.3159 2.54885C34.7593 4.99223 34.7593 8.92476 34.7593 16.7899V18.1803C34.7593 26.0454 34.7593 29.9779 32.3159 32.4214C29.8725 34.8647 25.94 34.8647 18.0748 34.8647H16.6844C8.8193 34.8647 4.88676 34.8647 2.44338 32.4214C0 29.9779 0 26.0454 0 18.1803V16.7899Z" fill="#101015"/>
<path d="M17.6209 26.1572H16.5714C16.3353 26.1289 16.0981 26.1051 15.8627 26.0719C14.0968 25.8224 12.5355 25.1168 11.1992 23.9379C9.62494 22.5477 8.64053 20.8178 8.27846 18.7437C8.21969 18.4072 8.18575 18.0664 8.14062 17.7274V16.6769C8.15147 16.6153 8.16441 16.5538 8.17246 16.4919C8.21514 16.1686 8.23998 15.8422 8.30085 15.5228C8.63994 13.739 9.44944 12.2011 10.7293 10.9093C12.0678 9.55829 13.6756 8.70751 15.5541 8.38393C15.8917 8.32585 16.2332 8.29157 16.5728 8.24609H17.6223C17.8585 8.27443 18.0956 8.29822 18.3311 8.33145C20.097 8.58088 21.6583 9.28613 22.9946 10.4654C24.5688 11.8556 25.5532 13.5855 25.9153 15.6596C25.9741 15.9962 26.008 16.3369 26.0531 16.6759V17.7253C26.0423 17.7869 26.0294 17.8485 26.0213 17.9104C25.9786 18.2336 25.9538 18.56 25.8929 18.8794C25.5531 20.664 24.7432 22.2022 23.463 23.494C22.1246 24.845 20.5168 25.6954 18.6382 26.0194C18.302 26.0774 17.9606 26.1117 17.6209 26.1572ZM13.2226 16.6661H20.9443C20.9443 16.6272 20.9443 16.5986 20.9443 16.5702C20.8851 15.5165 20.6742 14.4768 20.3181 13.4833C20.2793 13.3763 20.2131 13.3801 20.1295 13.3801C18.1073 13.3801 16.0848 13.3796 14.0621 13.3784C13.953 13.3784 13.8939 13.4039 13.8645 13.5183C13.7148 14.0976 13.5342 14.67 13.4097 15.2549C13.3135 15.7128 13.2831 16.1872 13.2226 16.6661ZM13.2481 17.7348C13.2481 17.7848 13.2463 17.8138 13.2481 17.8429C13.3083 18.8906 13.5182 19.9244 13.8715 20.9126C13.9135 21.0288 13.9838 21.0232 14.0723 21.0232C16.0891 21.0232 18.1058 21.0239 20.1222 21.0253C20.2404 21.0253 20.3009 20.9966 20.3321 20.8762C20.4954 20.2165 20.6819 19.5623 20.826 18.8983C20.9068 18.5215 20.9187 18.1287 20.9628 17.7348H13.2481ZM14.3539 12.3174H19.7787C19.778 12.3015 19.7754 12.2858 19.771 12.2705C19.1462 11.1185 18.3209 10.1488 17.206 9.4404C17.114 9.38163 17.0542 9.39982 16.9723 9.45125C16.2991 9.87314 15.7074 10.4129 15.2257 11.0447C14.9238 11.4418 14.6603 11.8671 14.3539 12.3174ZM19.794 22.0859H14.4141C14.4144 22.1017 14.4168 22.1173 14.4211 22.1325C15.0458 23.2844 15.8711 24.2542 16.986 24.9629C17.078 25.0213 17.1378 25.0035 17.2197 24.9524C17.728 24.6311 18.1908 24.2428 18.5955 23.798C19.069 23.2828 19.4721 22.7071 19.794 22.0859ZM9.18346 16.6678H12.192C12.2401 15.5517 12.4445 14.4479 12.7993 13.3885C12.7265 13.3854 12.6751 13.3812 12.6244 13.3808C11.8614 13.3808 11.0984 13.384 10.3354 13.3777C10.2105 13.3777 10.1532 13.4225 10.0979 13.5281C9.79431 14.0988 9.56595 14.7063 9.41854 15.3357C9.31954 15.7695 9.26182 16.2123 9.18346 16.6678ZM24.9725 16.6696C24.9725 16.6279 24.9725 16.6048 24.9725 16.5818C24.8938 15.493 24.5818 14.4339 24.0577 13.4763C24.0297 13.4246 23.9304 13.3854 23.8639 13.3847C23.0943 13.3784 22.3247 13.3805 21.5575 13.3812C21.5082 13.3812 21.4592 13.3882 21.3928 13.3934C21.747 14.4519 21.9519 15.5545 22.0014 16.6696H24.9725ZM12.8049 21.0225C12.434 19.9348 12.2469 18.8451 12.1895 17.74H9.22264C9.22089 17.7712 9.21809 17.7887 9.21914 17.8058C9.29564 18.9007 9.60794 19.9661 10.1346 20.9291C10.1612 20.978 10.2515 21.0176 10.3127 21.0186C10.7727 21.026 11.2327 21.0225 11.6928 21.0225H12.8049ZM25.0068 17.7341H22.0011C21.9519 18.8489 21.7476 19.9514 21.3942 21.0099C21.4547 21.0144 21.4949 21.0204 21.5341 21.0204C22.3145 21.0204 23.095 21.0183 23.8755 21.0235C23.9874 21.0235 24.0388 20.9805 24.0871 20.8885C24.3972 20.3079 24.6299 19.6893 24.7794 19.0484C24.8763 18.6219 24.9323 18.1847 25.0068 17.7358V17.7341ZM15.12 9.58278C14.0377 9.61776 11.2159 11.4718 10.9249 12.331C11.6329 12.331 12.3375 12.3265 13.042 12.3349C13.182 12.3366 13.2446 12.2866 13.3023 12.1655C13.7012 11.3211 14.2268 10.5425 14.8608 9.85669C14.9427 9.76959 15.0259 9.68283 15.12 9.58278ZM23.3084 12.3216C22.1855 10.9335 20.7984 10.0169 19.064 9.54885C19.0854 9.58546 19.1093 9.62053 19.1357 9.6538C19.8822 10.4059 20.465 11.271 20.9268 12.2222C20.9527 12.2757 21.0489 12.3254 21.1129 12.3272C21.7947 12.3345 22.4772 12.3317 23.1587 12.3314C23.1968 12.3307 23.2353 12.3261 23.3084 12.3216ZM10.9102 22.0723C11.4549 23.1018 14.2458 24.9164 15.1025 24.8058C15.0861 24.7852 15.0738 24.766 15.0584 24.7502C14.3243 24.0065 13.7237 23.142 13.2831 22.1944C13.2334 22.0894 13.168 22.0698 13.0651 22.0705C12.4414 22.074 11.8177 22.0723 11.1939 22.0723H10.9102ZM23.3161 22.0723C22.5594 22.0723 21.8549 22.0768 21.1507 22.0684C21.0107 22.0684 20.9478 22.1167 20.8901 22.2374C20.4913 23.082 19.9657 23.8606 19.3316 24.5463C19.2497 24.6341 19.1665 24.7212 19.0842 24.8086C20.7987 24.386 22.1851 23.4698 23.3161 22.0723Z" fill="white"/>
</svg>
