<svg width="36" height="35" viewBox="0 0 36 35" fill="none" xmlns="http://www.w3.org/2000/svg">
<path d="M0.277344 16.7899C0.277344 8.92476 0.277344 4.99223 2.72072 2.54885C5.16411 0.105469 9.09664 0.105469 16.9618 0.105469H18.3522C26.2173 0.105469 30.1498 0.105469 32.5933 2.54885C35.0366 4.99223 35.0366 8.92476 35.0366 16.7899V18.1803C35.0366 26.0454 35.0366 29.9779 32.5933 32.4214C30.1498 34.8647 26.2173 34.8647 18.3522 34.8647H16.9618C9.09664 34.8647 5.16411 34.8647 2.72072 32.4214C0.277344 29.9779 0.277344 26.0454 0.277344 18.1803V16.7899Z" fill="#101015"/>
<path fill-rule="evenodd" clip-rule="evenodd" d="M9.49784 17.1116C13.7177 15.2735 16.5313 14.0616 17.9385 13.4759C21.9577 11.8042 22.7931 11.5135 23.3373 11.504C23.4572 11.502 23.7249 11.5329 23.8983 11.6725C24.0445 11.7912 24.085 11.9518 24.1041 12.0644C24.1336 12.2528 24.1417 12.4439 24.1285 12.6341C23.9105 14.9226 22.9683 20.4775 22.4886 23.0399C22.286 24.1243 21.8862 24.4873 21.4995 24.5237C20.66 24.601 20.0209 23.9682 19.2066 23.4345C17.933 22.5996 17.2133 22.0797 15.9767 21.2649C14.5476 20.3232 15.4742 19.8057 16.2885 18.9598C16.5015 18.7384 20.205 15.3704 20.2765 15.0645C20.2855 15.0263 20.2939 14.8838 20.2091 14.8086C20.1242 14.7333 19.9998 14.7591 19.9095 14.7796C19.7817 14.8086 17.7467 16.1536 13.8046 18.8148C13.2268 19.2114 12.7036 19.4044 12.2351 19.3938C11.7181 19.3825 10.724 19.1014 9.98502 18.8611C9.07869 18.5665 8.35821 18.4107 8.42189 17.9105C8.45412 17.6504 8.81277 17.3841 9.49784 17.1116Z" fill="white"/>
</svg>
