<svg width="35" height="35" viewBox="0 0 35 35" fill="none" xmlns="http://www.w3.org/2000/svg">
<g clip-path="url(#clip0_1789_36549)">
<path d="M0.0371094 16.7899C0.0371094 8.92476 0.0371094 4.99223 2.48049 2.54885C4.92387 0.105469 8.85641 0.105469 16.7216 0.105469H18.1119C25.9771 0.105469 29.9096 0.105469 32.353 2.54885C34.7964 4.99223 34.7964 8.92476 34.7964 16.7899V18.1803C34.7964 26.0454 34.7964 29.9779 32.353 32.4214C29.9096 34.8647 25.9771 34.8647 18.1119 34.8647H16.7216C8.85641 34.8647 4.92387 34.8647 2.48049 32.4214C0.0371094 29.9779 0.0371094 26.0454 0.0371094 18.1803V16.7899Z" fill="#101015"/>
<path d="M18.5315 25.1482C10.6093 25.1482 6.09062 19.7171 5.90234 10.6797H9.87069C10.001 17.3129 12.9265 20.1226 15.2438 20.7019V10.6797H18.9806V16.4005C21.2689 16.1543 23.6728 13.5473 24.4839 10.6797H28.2205C27.5978 14.2135 24.9908 16.8205 23.137 17.8922C24.9908 18.7612 27.96 21.0351 29.0897 25.1482H24.9763C24.0929 22.3965 21.8917 20.2675 18.9806 19.9778V25.1482H18.5315Z" fill="white"/>
</g>
<defs>
<clipPath id="clip0_1789_36549">
<rect width="34.7593" height="34.7593" fill="white" transform="translate(0.0371094 0.105469)"/>
</clipPath>
</defs>
</svg>
