<svg width="36" height="35" viewBox="0 0 36 35" fill="none" xmlns="http://www.w3.org/2000/svg">
<path d="M0.759766 16.7899C0.759766 8.92476 0.759766 4.99223 3.20315 2.54885C5.64653 0.105469 9.57906 0.105469 17.4442 0.105469H18.8346C26.6997 0.105469 30.6322 0.105469 33.0757 2.54885C35.519 4.99223 35.519 8.92476 35.519 16.7899V18.1803C35.519 26.0454 35.519 29.9779 33.0757 32.4214C30.6322 34.8647 26.6997 34.8647 18.8346 34.8647H17.4442C9.57906 34.8647 5.64653 34.8647 3.20315 32.4214C0.759766 29.9779 0.759766 26.0454 0.759766 18.1803V16.7899Z" fill="#101015"/>
<g clip-path="url(#clip0_1789_36535)">
<path d="M29.6021 11.7147C29.4727 11.2313 29.2184 10.7906 28.8646 10.4368C28.5108 10.083 28.07 9.82863 27.5867 9.69929C25.8096 9.22266 18.6807 9.22266 18.6807 9.22266C18.6807 9.22266 11.5499 9.22266 9.77476 9.69929C9.29142 9.82863 8.85068 10.083 8.49688 10.4368C8.14309 10.7906 7.88872 11.2313 7.75938 11.7147C7.27148 13.4917 7.27148 17.2016 7.27148 17.2016C7.27148 17.2016 7.27148 20.9096 7.74812 22.6886C7.87798 23.1716 8.13252 23.6121 8.48624 23.9658C8.83995 24.3195 9.28042 24.5741 9.7635 24.7039C11.5406 25.1806 18.6695 25.1806 18.6695 25.1806C18.6695 25.1806 25.8002 25.1806 27.5754 24.7039C28.0606 24.5758 28.5034 24.322 28.8592 23.9682C29.215 23.6144 29.4712 23.173 29.6021 22.6886C30.0787 20.9096 30.0787 17.2016 30.0787 17.2016C30.0787 17.2016 30.0693 13.4917 29.6021 11.7147Z" fill="white"/>
<path d="M16.3906 20.6193L22.3148 17.2003L16.3906 13.7812V20.6193Z" fill="#101015"/>
</g>
<defs>
<clipPath id="clip0_1789_36535">
<rect width="22.796" height="15.9579" fill="white" transform="translate(7.27344 9.22266)"/>
</clipPath>
</defs>
</svg>
