<svg width="255" height="180" viewBox="0 0 255 180" fill="none" xmlns="http://www.w3.org/2000/svg">
<path d="M147.817 40.2579H120.018C118.781 40.2579 117.762 40.7719 117.034 41.7262C116.306 42.6808 115.942 43.7823 115.942 45.1039C115.942 46.3521 116.306 47.4536 116.961 48.3347C117.689 49.2158 118.635 49.6563 119.945 49.6563H136.319C140.758 49.6563 144.251 51.3451 146.798 54.6493C149.127 57.6597 150.291 61.331 150.291 65.7365C150.291 70.142 149.127 73.8133 146.798 76.8239C144.251 80.1279 140.758 81.8169 136.319 81.8169H106.555V70.5825H134.427C135.591 70.5825 136.537 70.0688 137.265 69.1142C137.993 68.1596 138.284 66.9847 138.284 65.663C138.284 64.3414 137.92 63.2401 137.265 62.359C136.61 61.4779 135.664 61.0374 134.427 61.0374H118.053C113.614 61.0374 110.121 59.4219 107.501 56.1179C105.172 53.1807 104.008 49.5094 104.008 45.1039C104.008 40.7719 105.172 37.174 107.501 34.1634C110.121 30.8594 113.614 29.1704 118.053 29.1704H147.744V40.2579H147.817Z" fill="white"/>
<path d="M174.67 28.436L172.268 29.6842C171.904 29.9046 171.759 30.3451 171.977 30.7122C176.998 39.8905 179.254 50.6841 177.799 62.1384C174.888 85.2676 156.768 103.624 133.844 106.561C100.151 110.967 71.6964 81.8901 76.6449 47.747C79.8469 25.5725 97.1668 8.0237 119.071 4.5727C127.222 3.32445 135.081 3.98529 142.213 6.26148C142.14 6.62861 142.14 6.92233 142.14 7.28944C142.14 11.3279 145.997 14.4852 150.145 13.237C152.037 12.6495 153.565 11.1076 154.148 9.19852C155.385 4.93983 152.256 1.12168 148.253 1.12168C146.652 1.12168 145.197 1.78252 144.032 2.81048C136.318 0.167148 127.731 -0.713963 118.853 0.607702C95.0564 4.20557 76.2811 23.2228 72.788 47.2332C67.4756 84.313 98.7677 115.813 135.518 110.306C159.169 106.781 177.944 87.8374 181.437 63.9741C183.329 51.1247 180.855 38.8625 175.179 28.6564C175.106 28.436 174.888 28.3625 174.67 28.436Z" fill="white"/>
<g clip-path="url(#clip0_1782_31987)">
<path d="M9.53959 147.035C3.37257 147.035 0.274414 144.233 0.274414 138.63C0.274414 133.027 3.37257 130.225 9.53959 130.225H28.07V135.828H10.4456C7.34757 135.828 5.79844 136.772 5.79844 138.63C5.79844 140.488 7.34757 141.431 10.4456 141.431H18.7756C24.9427 141.431 28.0408 144.233 28.0408 149.836C28.0408 155.439 24.9427 158.241 18.7756 158.241H0.274414V152.667H17.8987C20.9969 152.667 22.546 151.723 22.546 149.866C22.546 148.008 20.9969 147.064 17.8987 147.064H9.53959V147.035Z" fill="white"/>
<path d="M55.8946 130.225H61.4476V148.922C61.4476 155.144 58.3494 158.27 52.1832 158.27H42.9176C36.7505 158.27 33.6523 155.144 33.6523 148.922V130.225H39.2057V148.155C39.2057 151.163 40.6962 152.667 43.6483 152.667H51.4225C54.4046 152.667 55.8946 151.163 55.8946 148.126V130.225Z" fill="white"/>
<path d="M85.8541 130.225C92.0214 130.225 95.1196 133.027 95.1196 138.63C95.1196 141.756 94.1842 143.614 92.3426 144.233C94.1842 144.852 95.1196 146.74 95.1196 149.836C95.1196 155.439 92.0214 158.241 85.8541 158.241H67.3242V130.225H85.8541ZM85.0652 141.343C87.5199 141.343 88.7484 140.429 88.7484 138.571C88.7484 136.713 87.228 135.799 84.159 135.799H72.2337V141.372H85.0652V141.343ZM85.8541 147.035H72.8772V152.638H84.9187C88.017 152.638 89.5666 151.694 89.5666 149.836C89.5666 147.978 88.3392 147.035 85.8541 147.035Z" fill="white"/>
<path d="M109.967 147.035C103.799 147.035 100.701 144.233 100.701 138.63C100.701 133.027 103.799 130.225 109.967 130.225H128.497V135.828H110.873C107.775 135.828 106.226 136.772 106.226 138.63C106.226 140.488 107.775 141.431 110.873 141.431H119.232C125.399 141.431 128.497 144.233 128.497 149.836C128.497 155.439 125.399 158.241 119.232 158.241H100.701V152.667H118.326C121.424 152.667 122.973 151.723 122.973 149.866C122.973 148.008 121.424 147.064 118.326 147.064H109.967V147.035Z" fill="white"/>
<path d="M140.51 158.27H134.957V130.225H153.487C159.654 130.225 162.752 133.027 162.752 138.63C162.752 144.233 159.654 147.035 153.487 147.035H140.51V158.27ZM151.148 141.343C154.217 141.343 155.738 140.429 155.738 138.571C155.738 136.713 154.217 135.799 151.148 135.799H139.224V141.372H151.148V141.343Z" fill="white"/>
<path d="M169.153 152.667L166.757 158.27H160.707L172.778 130.225H178.828L190.899 158.27H184.849L182.452 152.667H169.153ZM179.967 147.035L175.759 137.244L171.55 147.035H179.967Z" fill="white"/>
<path d="M221.208 152.667V158.27H202.678C196.51 158.27 193.413 155.144 193.413 148.922V139.574C193.413 133.351 196.51 130.225 202.678 130.225H221.208V135.828H203.438C200.456 135.828 198.966 137.332 198.966 140.311V148.155C198.966 151.163 200.456 152.667 203.438 152.667H221.208Z" fill="white"/>
<path d="M232.022 152.667H254.264V158.27H226.469V130.225H254.264V135.828H232.022V141.431H254.264V147.035H232.022V152.667Z" fill="white"/>
<path d="M150.185 171.041V179.977H147.643V167.178H150.244L157.813 176.114V167.178H160.356V179.977H157.784L150.185 171.041Z" fill="white"/>
<path d="M165.411 177.411H175.553V179.977H162.868V167.178H175.553V169.744H165.411V172.309H175.553V174.875H165.411V177.411Z" fill="white"/>
<path d="M183.183 169.713H178.127V167.147H190.812V169.713H185.726V179.946H183.183V169.713Z" fill="white"/>
<path d="M195.837 179.946L192.038 167.147H194.698L197.182 175.493L199.666 167.147H202.326L204.81 175.493L207.295 167.147H209.955L206.154 179.946H203.495L201.011 171.6L198.527 179.946H195.837Z" fill="white"/>
<path d="M219.572 179.946H215.333C212.499 179.946 211.096 178.53 211.096 175.67V171.394C211.096 168.533 212.499 167.118 215.333 167.118H219.572C222.407 167.118 223.81 168.533 223.81 171.394V175.67C223.81 178.53 222.407 179.946 219.572 179.946ZM219.163 177.41C220.565 177.41 221.267 176.702 221.267 175.286V171.836C221.267 170.421 220.565 169.713 219.163 169.713H215.363C214.223 169.713 213.668 170.421 213.668 171.836V175.257C213.668 176.672 214.37 177.38 215.772 177.38H219.163V177.41Z" fill="white"/>
<path d="M230.123 174.846H228.895V179.977H226.353V167.178H234.829C237.664 167.178 239.067 168.446 239.067 171.012C239.067 173.578 237.664 174.846 234.829 174.846H234.039L240.002 179.977H236.115L230.123 174.846ZM234.391 172.28C235.793 172.28 236.495 171.867 236.495 171.012C236.495 170.157 235.793 169.744 234.391 169.744H228.895V172.309H234.391V172.28Z" fill="white"/>
<path d="M244.123 174.166V179.946H241.58V167.147H244.123V172.927L250.495 167.147H254.294L247.25 173.546L254.294 179.946H250.495L244.123 174.166Z" fill="white"/>
</g>
<defs>
<clipPath id="clip0_1782_31987">
<rect width="254.265" height="56.5033" fill="white" transform="translate(0 123.473)"/>
</clipPath>
</defs>
</svg>
