<svg width="62" height="62" viewBox="0 0 62 62" fill="none" xmlns="http://www.w3.org/2000/svg">
<g clip-path="url(#clip0_1945_18205)">
<path opacity="0.6" d="M6.86744 11.5318C17.4218 -1.65476 36.6679 -3.78856 49.8546 6.76584C63.0412 17.3202 65.1749 36.5661 54.6205 49.7527C44.0661 62.9393 24.82 65.0731 11.6334 54.5188C-1.5532 43.9643 -3.68702 24.7184 6.86744 11.5318Z" fill="white"/>
<path opacity="0.8" d="M14.9587 11.1165C22.668 1.48465 37.2997 0.385353 47.6395 8.66119C57.9793 16.9371 60.1117 31.4541 52.4024 41.0859C44.6931 50.7179 30.0614 51.8171 19.7216 43.5413C9.38182 35.2655 7.24937 20.7484 14.9587 11.1165Z" fill="white"/>
<path opacity="0.9" d="M22.6149 12.1665C28.1968 5.19254 38.7622 4.37367 46.2134 10.3375C53.6646 16.3014 55.18 26.7896 49.5981 33.7634C44.0162 40.7374 33.4508 41.5563 25.9996 35.5924C18.5484 29.6286 17.033 19.1405 22.6149 12.1665Z" fill="white"/>
<path d="M30.9585 13.5316C34.3385 9.30874 40.5018 8.62541 44.7248 12.0054C48.9476 15.3853 49.631 21.5486 46.251 25.7716C42.871 29.9944 36.7076 30.6777 32.4848 27.2978C28.2618 23.9178 27.5785 17.7544 30.9585 13.5316Z" fill="white"/>
</g>
<defs>
<clipPath id="clip0_1945_18205">
<rect width="60.8638" height="60.8638" fill="white" transform="translate(0.3125 0.209961)"/>
</clipPath>
</defs>
</svg>
