<svg width="62" height="62" viewBox="0 0 62 62" fill="none" xmlns="http://www.w3.org/2000/svg">
<g clip-path="url(#clip0_1945_18197)">
<path fill-rule="evenodd" clip-rule="evenodd" d="M39.5827 55.0399C35.8101 49.5636 32.2353 44.0416 28.8582 38.5044C23.5644 29.8487 18.7421 21.1169 14.4219 12.4004C10.8014 15.8992 7.50039 19.7174 4.56445 23.8095L37.4074 56.6524C38.1528 56.12 38.883 55.5876 39.5979 55.0247L39.5827 55.0399Z" fill="white"/>
<path fill-rule="evenodd" clip-rule="evenodd" d="M32.2064 36.6508C35.477 42.0054 38.9453 47.3297 42.581 52.6387C43.4025 51.9389 44.2087 51.2392 45.015 50.509C43.9501 47.8164 42.9157 45.0478 41.9269 42.2184C37.485 29.5923 33.758 15.5364 30.6395 0.248198C30.6243 0.248198 30.6091 0.232986 30.5939 0.217773C25.8629 2.95595 21.4362 6.13528 17.3594 9.71013C21.7709 18.7005 26.73 27.706 32.2064 36.6508Z" fill="white"/>
<path fill-rule="evenodd" clip-rule="evenodd" d="M45.5276 40.9871C46.3186 43.2537 47.1401 45.4747 47.9768 47.65C53.012 42.5844 57.3931 36.8647 60.9983 30.6429C54.5788 19.5381 45.6645 10.0761 35.0312 2.9873C37.9672 16.7543 41.4812 29.4716 45.5276 40.9871Z" fill="white"/>
<path fill-rule="evenodd" clip-rule="evenodd" d="M2.37177 27.0518C1.61117 28.2231 0.865772 29.4248 0.166016 30.6418C7.46783 43.2526 17.9794 53.7642 30.5902 61.066C31.8072 60.3663 33.0089 59.6209 34.1803 58.8603L2.37177 27.0518Z" fill="white"/>
</g>
<defs>
<clipPath id="clip0_1945_18197">
<rect width="60.8638" height="60.8638" fill="white" transform="translate(0.150391 0.209961)"/>
</clipPath>
</defs>
</svg>
